<svg xmlns="http://www.w3.org/2000/svg" xml:space="preserve" style="enable-background:new 0 0 384 384" viewBox="0 0 384 384"><path d="M.7 26.2c1.8-2.9 4.5-3.8 7.9-3.8 122.5.1 245 .1 367.5.1h1.9c3.5.2 5.9 2.4 6 5.5.1 3.2-2.4 5.7-6 5.7-8.5.1-17 0-25.4 0h-4.4c0 10.9-.1 21.5.1 32 0 1.1 1.2 2.3 2.1 3.3 9.1 9.2 18.3 18.4 27.5 27.6 8.4 8.5 8.4 18.5 0 27-23.3 23.4-46.7 46.8-70.1 70.1-8.3 8.2-18.5 8.2-26.8 0-10.8-10.7-21.6-21.5-32.3-32.3-7.9-8-8-18.3-.1-26.2 13.6-13.7 27.3-27.4 41-41 3.9-3.9 9.4-3 10.1 1.8.3 1.9-.9 4.7-2.3 6.1-8.5 8.8-17.2 17.4-25.9 26-1 1-2.1 1.7-2.9 2.3 14.7 14.6 28.8 28.8 43.2 43.2.4-.4 1.3-1.2 2.2-2.1l55.3-55.3c4.8-4.8 4.8-7.5 0-12.3-6.8-6.9-13.7-13.7-21.3-21.3 0 8.5.1 15.9 0 23.3-.2 9.8-7.4 17.4-16.7 17.7-10.4.4-18.4-7.2-18.5-17.8-.1-22.5 0-44.9 0-67.4v-4.6H71.9v20.6c0 5.5-1.3 11.5.7 16.2 1.9 4.6 7.1 7.8 10.9 11.6l51.6 51.6c9.3 9.3 9.4 19.1.1 28.4-10.3 10.3-20.6 20.7-31 31-8.7 8.7-18.8 8.7-27.6 0-23.2-23.2-46.5-46.3-69.5-69.7-2.7-2.7-4.3-6.5-6.4-9.8v-7.5c1.8-5.2 5.4-9.1 9.3-12.8 5-4.8 9.9-9.8 14.8-14.8 3.9-4 9.3-7.4 11.3-12.2 2-4.8.6-11 .6-16.6V33.6c-9.7 0-18.9-.1-28.1.1-3.4.1-6.1-.8-7.9-3.8v-3.7zM72.5 174c14.8-14.9 29-29 42.3-42.3C100.6 117.5 86 103 71.9 88.8c0 5.5.2 11.8 0 18.2-.4 11.4-11.6 19.3-22.4 16-7.6-2.3-12.6-8.8-12.7-17-.1-7.4 0-14.8 0-23.3-7.6 7.6-14.4 14.5-21.2 21.3-4.8 4.8-4.8 7.5 0 12.3 18.1 18.1 36.2 36.2 54.2 54.3 1.1 1 1.9 2.4 2.7 3.4zM47.9 33.9v66.6c0 2-.1 4 .1 6 .5 5 5.8 7.9 9.5 4.9 1.7-1.4 3-4.3 3-6.6.2-22.7.1-45.3.1-68 0-.9-.2-1.9-.3-2.9H47.9zm276.1 0V89.3c0 5.7-.1 11.5.1 17.2.1 3.3 2.5 5.6 5.6 5.9 3.3.3 6.1-1.7 6.9-5 .2-.8.2-1.7.2-2.6V36.4c0-.8-.2-1.6-.3-2.5H324zM124.9 139.7 82 182.6c.3.3.8.8 1.3 1.4 6.1 6.2 8.3 6.2 14.4 0l28-28c6.9-6.9 6.9-9-.3-15.8-.2-.2-.5-.4-.5-.5zm135.1.1c-7.1 5.7-8.7 9.1-.9 16.5 9.7 9.2 18.9 18.8 28.4 28.3 5.6 5.6 8 5.5 13.6-.1.7-.7 1.3-1.4 1.7-1.8-14.4-14.6-28.5-28.7-42.8-42.9z"/><path d="M.7 342.1c1.4-1.4 2.7-2.9 4.3-4 41.9-31.3 83.8-62.5 125.6-93.7 1.1-.8 2.2-1.7 3.5-2.7-2.7-3.7-5.4-7.3-8-10.8L112 212c-2.4-3.3-2.2-6.6.4-8.6 2.7-2.1 6.1-1.5 8.7 2 7.3 9.8 14.6 19.6 22.2 29.7 13.2-9.8 26.3-19.6 39.6-29.5-5.2-3.9-10.2-7.6-15.2-11.4l-20.1-15c-3.5-2.6-4.3-5.8-2.3-8.6s5.4-3 8.9-.4c12.6 9.4 25.2 18.8 38.1 28.4 6.4-4.7 12.8-9.5 19.1-14.2 6.6-4.9 13.2-9.9 19.8-14.7 2.8-2 6.2-1.5 8 1 1.8 2.5 1.3 5.7-1.3 8-.6.5-1.2.9-1.8 1.4-10.3 7.7-20.6 15.4-30.9 23-1.1.8-2.2 1.6-3.5 2.7 13.3 9.9 26.2 19.5 39.6 29.5 1.5-1.9 2.9-3.8 4.3-5.6 5.7-7.7 11.5-15.4 17.2-23.1 3.2-4.3 6.3-5.2 9.3-2.9 2.8 2.2 2.8 5.5-.2 9.5-7.1 9.5-14.1 19-21.5 28.8 2.9 2.2 5.8 4.4 8.6 6.5 40.3 30 80.6 60.1 120.9 90.1.5.4 1 .7 1.5 1.1 2.7 2.4 3.3 5.4 1.4 7.9-1.9 2.7-5.2 3.1-8.3.9-7.9-5.7-15.6-11.6-23.4-17.4-34.8-25.9-69.6-51.9-104.4-77.8-1-.7-2-1.4-3.2-2.3-10.7 14.3-21.3 28.5-31.8 42.7-3.4 4.6-6.7 9.3-10.3 13.7-1.9 2.3-1.6 3.8.1 6.1 9.9 13 19.6 26.1 29.3 39.2.7 1 1.6 2 2.1 3.1 1.3 2.7.8 5.2-1.6 7-2.4 1.8-4.9 1.6-7.1-.5-.9-.8-1.6-1.9-2.4-2.9-9-12.1-18-24.2-27.1-36.3-.7-1-1.5-1.9-2.5-3.1-1 1.3-1.9 2.3-2.7 3.3-9.2 12.3-18.3 24.6-27.6 36.8-1.1 1.5-2.9 3.2-4.6 3.4-1.7.2-4.4-.9-5.3-2.3-1-1.4-.8-4-.3-5.8.5-1.8 2.2-3.3 3.4-4.9 9.4-12.6 18.8-25.2 28.1-37.8.7-1 1.2-3.2.6-4-14.2-19.3-28.5-38.5-43-57.9-9.6 7.2-19.1 14.2-28.6 21.3-33.6 25-67.2 50.1-100.8 75.1-5 3.7-7.3 3.4-10.9-1.3.2-1.3.2-2.6.2-3.8zm191.7-41.3c14.3-19.2 28.2-37.9 42.3-56.8-14.3-10.7-28.3-21.1-42.3-31.6-14.3 10.6-28.2 21-42.4 31.6 14.2 19 28.1 37.6 42.4 56.8z"/></svg>