<svg xmlns="http://www.w3.org/2000/svg" xml:space="preserve" style="enable-background:new 0 0 48 48" viewBox="0 0 48 48"><path d="M18.2 16.6h2.3c.5 0 .9.3.9.7 0 .4-.3.8-.9.8h-6.3c-.6 0-.9-.3-.9-.7 0-.5.3-.7.9-.8h2.4l.1-.1V5.6c0-1.6.9-2.5 2.5-2.5h23.5c1.6 0 2.5.9 2.5 2.5v23.5c0 1.5-.9 2.4-2.4 2.4h-11v2.4c0 .6-.3.9-.7.9-.5 0-.8-.3-.8-.9v-6.4c0-.6.3-.9.8-.9.4 0 .7.4.7.9v2.4h10.9c.9 0 1.1-.2 1.1-1.1V5.5c0-.9-.2-1.1-1.1-1.1H19.4c-.9 0-1.1.2-1.1 1.1v10.4c-.1.3-.1.4-.1.7zM27.1 45H25c-.5 0-.9-.3-.9-.8s.3-.7.9-.7h3.9c.8 0 1.2-.3 1.2-1.2v-3.9c0-.6.3-.9.7-.9.5 0 .8.3.8.9v4.1c0 1.4-1.1 2.5-2.5 2.5h-2zM3.2 21v-2.1c0-1.4 1.1-2.4 2.4-2.4h4.2c.5 0 .8.3.9.7 0 .4-.3.8-.9.8H5.9c-.8 0-1.2.3-1.2 1.2v3.9c0 .6-.3.9-.7.9-.5 0-.7-.3-.8-.9V21z"/><path d="M31.6 21.1v2.1c0 .5-.3.9-.8.9s-.7-.3-.7-.9v-3.8c0-1-.3-1.3-1.2-1.3H25c-.5 0-.8-.3-.8-.8 0-.4.3-.7.8-.7h4.2c1.3 0 2.4 1.1 2.4 2.4v2.1zM7.7 45h-2c-1.4 0-2.5-1.1-2.5-2.5v-4.1c0-.5.3-.9.7-.9.5 0 .8.3.8.9v3.9c0 .8.3 1.1 1.1 1.1h3.9c.6 0 .9.3.9.7 0 .5-.4.7-.9.7-.7.2-1.4.2-2 .2zM4.7 30.8V34c0 .6-.3.9-.7.9-.5 0-.7-.3-.7-.9v-6.4c0-.6.3-.9.7-.9.5 0 .7.3.7.9v3.2zM17.4 45h-3.2c-.6 0-.9-.3-.9-.7 0-.5.3-.7.9-.7h6.4c.6 0 .9.3.9.7 0 .5-.4.7-.9.8-1.1-.1-2.1-.1-3.2-.1z"/></svg>