<svg xmlns="http://www.w3.org/2000/svg" xml:space="preserve" style="enable-background:new 0 0 384 384" viewBox="0 0 384 384"><path d="M.7 327.9c1.6-6 2.7-12.2 5-17.9 6.6-16.1 18.1-27.5 34.1-34.4.5-.2.9-.4 1.4-.6.2-.1.4-.3.9-.7-9.6-9-14.2-19.9-12.1-33.1 1.4-8.7 5.7-15.9 12.5-21.5 14-11.4 34.6-10.3 47.3 2.5 11.4 11.5 16.5 34-2 51.9 4.9 2.9 10.2 5.5 14.8 9 16.4 12.3 25.1 29 26 49.5.2 5.6-2 7.9-7.4 7.9H8.2c-3.5 0-6-1.3-7.5-4.4v-8.2zm12.9.4h102.2c1.7-21.9-24.7-45.7-50.7-46-26.1-.2-53 23.7-51.5 46zm50.9-58c12.9.1 23.4-10.1 23.7-23 .2-12.7-10.3-23.5-23.1-23.6-12.9-.1-23.4 10.1-23.7 23-.2 12.8 10.2 23.5 23.1 23.6zM297.3 274.5c-18.9-18.1-14-41-2.1-52.6 13.7-13.3 35.1-13.5 49-.5 12.1 11.3 17.7 34.5-1.1 52.7 4.9 2.9 10.2 5.5 14.8 9 16.5 12.3 25.1 29 26 49.5.3 5.6-2 7.9-7.5 7.9h-113c-5.3 0-7.7-2.3-7.4-7.6 1.4-26.2 14.1-45.1 37.6-56.7 1.1-.6 2.3-1.1 3.7-1.7zm-28.4 53.8h102.2c1.7-22.1-25-46-51.1-46s-52.7 23.8-51.1 46zm50.8-58c12.9.1 23.4-10.1 23.7-23 .2-12.7-10.3-23.5-23.1-23.6-12.9-.1-23.4 10.1-23.7 23-.2 12.8 10.3 23.5 23.1 23.6zM169.6 73.3c-19.5-18.5-13.3-42.5-1-53.5 14.1-12.7 35.8-12.2 49 1.4 12.5 12.8 15.2 35.5-2.6 52 1 .5 2 1 2.9 1.5 23.7 11.5 36.7 30.2 38.3 56.7.3 5.8-1.8 7.9-7.7 7.9H135.9c-5.6 0-7.8-2.2-7.5-7.8 1.5-26.8 14.7-45.6 38.8-57 .9-.4 1.6-.8 2.4-1.2zm-28.7 53.8h103c-1.8-24.9-25.1-45.6-51.3-45.8-26.2-.2-49.7 20.5-51.7 45.8zM169.1 46c0 12.9 10.5 23.3 23.3 23.3 12.9-.1 23.2-10.5 23.2-23.4 0-12.9-10.5-23.3-23.3-23.3S169.1 33.1 169.1 46zM41.1 196.8c1.9-11.8 5.4-23.7 10.4-35.2 12.9-29.7 33.3-53 60.7-70.1 1-.6 1.9-1.2 2.9-1.7 3-1.4 5.6-.7 7.6 2 1.8 2.5 1.3 6.1-1.3 8-3 2.2-6.3 4.1-9.3 6.2-32 22.5-51.6 53.1-58.9 91.5-.8 4.4-3 6.7-6.3 6.6-3.5.1-6-2.8-5.8-7.3zM343.7 197.7c-.1 3.7-2.3 6.2-5.4 6.5-3.1.3-5.7-1.9-6.5-5.5-1.5-6.3-2.7-12.7-4.6-18.8-10.4-33.1-30.5-58.7-59.7-77.4-1-.7-2.1-1.3-3.2-2-3.3-2.3-4.2-5.7-2.3-8.7 1.9-2.8 5.3-3.7 8.5-1.5 7.6 5.2 15.5 10.2 22.4 16.2 27.3 23.6 43.9 53.4 50.5 88.9.2.9.2 1.8.3 2.3zM192.3 376.2c-18.5-.7-36.4-3.8-53.8-10.3-4.2-1.6-5.9-4.5-4.7-7.9 1.3-3.6 4.4-4.9 8.9-3.2 16 5.9 32.6 9 49.7 8.9 16.1 0 31.7-2.6 46.9-8 .9-.3 1.9-.6 2.8-1 4.3-1.4 7.4-.3 8.7 3.1 1.3 3.5-.2 6.8-4.5 8-9.2 2.7-18.3 5.6-27.7 7.4-8.6 1.7-17.5 2.1-26.3 3z"/></svg>