<svg xmlns="http://www.w3.org/2000/svg" xml:space="preserve" style="enable-background:new 0 0 384 384" viewBox="0 0 384 384"><path d="M.7 55.4C2 52.9 3.1 50.2 4.8 48c3.3-4.4 7.9-6.8 13.5-7 1.5-.1 3-.1 4.5-.1 97.5 0 195.1 0 292.6-.1 3.5 0 6.1.8 8.6 3.4 19.2 19.4 38.6 38.6 57.8 58.1 1.4 1.4 2.1 4.2 2.1 6.4.1 57.4.1 114.8.1 172.1v44.5c0 12.2-7.5 19.9-19.7 20.2h-3.7c-112 0-224-.1-336 .1-11.6 0-19.8-3.5-23.8-14.8C.7 239 .7 147.2.7 55.4zM164.8 49c-1.3-.1-2-.2-2.8-.2H20.9c-8.4 0-12.2 4.1-12.2 12.6v263.1c0 9.1 3.8 12.9 13 12.9h190.5c9.8 0 13.7-3.8 13.7-13.5v-80.2h-32c-.2 2.1-.3 4-.6 5.8-1.5 7.9-10 12.5-16.9 8.5-13.1-7.7-26-15.8-38.7-24.2-6.7-4.4-6.6-14.5 0-18.9 12.6-8.3 25.4-16.3 38.3-24 7.2-4.3 15.9.3 17.3 8.6.3 1.8.4 3.6.5 5.3h31.8V110h-4.2c-12.5 0-24.9.1-37.4 0-11.2-.1-19-7.9-19.2-19.1-.1-3.2 0-6.5 0-9.7V49zm77 156v-3.4c.3-9.9 9.9-15.4 18.4-10.2 12.4 7.5 24.6 15.2 36.7 23.1 7.8 5 7.8 15.3 0 20.3-12.1 7.8-24.4 15.5-36.8 23-8.3 5-17.7-.5-18.2-10.1-.1-1.2 0-2.4 0-3.5h-7.8v25.6H346.8c1.2 0 2.8-.4 3.7.2 1.4.9 3.2 2.5 3.2 3.8 0 1.3-1.8 2.9-3.2 3.8-.9.6-2.4.2-3.7.2H234.1v16.5h32c2.8 0 5.1.8 5.2 4 0 3.2-2.2 4.1-5.1 4.1h-31.9c-1.7 11.9 2 23.7-3.1 34.9 1 .1 1.7.2 2.4.2h130.2c8.4 0 12.2-4.1 12.2-13V114.2c0-1.3-.1-2.6-.2-4.1H335c-12.2 0-19.9-7.7-19.9-19.8v-41H179.2c1.2 1.3 2 2.2 2.9 3.1 10.7 10.7 21.4 21.3 32 32.1 2 2 4 2.9 6.8 2.9 20.7-.1 41.4-.1 62.1 0 7.3 0 10.4 3.3 10.5 10.6v16.5c0 7.5-3.2 10.7-10.7 10.7h-44.5c-1.3 0-2.6.1-4 .2v21.7H347.2c1.1 0 2.5-.4 3.3.1 1.4 1 3.1 2.4 3.3 3.8.2 1.1-1.5 3-2.8 3.7-1.1.7-2.9.4-4.4.4H234.2v16.5h112.6c1.2 0 2.8-.4 3.7.2 1.4.9 3.2 2.4 3.2 3.7 0 1.3-1.8 2.9-3.2 3.8-1 .6-2.7.2-4 .2H234.1v25.9c2.6-.4 4.9-.4 7.7-.4zm53.5 19.3c-1.4-1.6-2.4-3.1-3.7-3.9-5.2-3.4-10.5-6.7-15.8-10-6.3-4-12.6-8-19-11.9-4-2.4-6.8-.9-7 3.7-.1 2 0 4 0 6 0 3.1-1.5 5-4.8 5h-54.6c-3.2 0-4.8-1.7-4.8-5 0-2.2.1-4.5 0-6.7-.2-3.8-2.9-5.4-6.2-3.4-12.2 7.5-24.4 15.1-36.5 22.7-3.1 2-3.2 5.1-.3 7 12.2 7.8 24.4 15.4 36.7 23 2.9 1.8 5.8.1 6.1-3.4.2-1.9 0-3.7 0-5.6 0-5 1.1-6.1 6.2-6.1 15.7 0 31.4-.1 47.1 0 9.2 0 11.4-2 10.9 10.4v.4c.2 4.5 2.9 6.1 6.7 3.8 11.9-7.3 23.7-14.7 35.5-22.2 1.4-.7 2.2-2.2 3.5-3.8zm-69.4-129c-.3.2-.6.3-.9.5 8 4.9 10.5 12.1 8.6 20.7H285V95.3h-59.1zm-53-39.7v34.6c0 7.6 4.1 11.7 11.8 11.7 10.3.1 20.7 0 31 0 1.2 0 2.4-.1 3.4-.2-15.3-15.3-30.6-30.6-46.2-46.1zm150.2-.2c-.1 1-.2 1.7-.2 2.4 0 10.7-.1 21.4 0 32.1.1 7.9 4.1 11.9 12 11.9 10.6.1 21.2 0 31.8 0 .9 0 1.8-.2 2.6-.3C354 86.2 338.7 71 323.1 55.4z"/><path d="M117.5 269.6h81.9c2.6.1 4.3 1.3 4.3 4.1 0 2.6-1.7 3.7-4.1 3.9-.9.1-1.7 0-2.6 0H35.1c-2.5-.1-4.1-1.5-4.1-3.9-.1-2.5 1.5-3.9 4-4.1 1.1-.1 2.2 0 3.4 0h79.1zM117.3 146.7H197c1.1 0 2.5-.4 3.3.1 1.3.8 3.2 2.2 3.2 3.3 0 1.4-1.4 3.2-2.6 4.2-.9.7-2.6.4-4 .4H36c-2.8 0-5.1-.9-5.1-4.1.1-3.2 2.4-3.9 5.2-3.9h81.2zM117.3 179.2H35.4c-2.6 0-4.5-1.2-4.5-3.9s1.7-4 4.4-4h164.1c2.7 0 4.3 1.3 4.2 4.1 0 2.6-1.7 3.8-4.1 3.8H117.3zM87.5 253H36.3c-2.4 0-4.6-.3-5.3-3.1-.6-2.4.5-4.2 3-4.8 1.2-.3 2.5-.2 3.7-.2h99.5c1 0 2 0 3 .1 2.5.2 4 1.6 3.9 4.1-.1 2.5-1.6 3.8-4.2 3.8h-21.7c-10.2.1-20.5.1-30.7.1zM49.5 124.9c-3.2 0-6.5.1-9.7 0-5.4-.2-8.8-3.6-8.9-9-.1-6.6-.2-13.2 0-19.8.1-5.3 3.4-8.7 8.7-8.9 6.8-.2 13.7-.2 20.5 0 5.1.2 8.4 3.4 8.5 8.6.2 6.8.2 13.7 0 20.5-.2 5.2-3.7 8.3-9 8.5-3.4.2-6.8.1-10.1.1zm-10.4-8.4h21.2V95.3H39.1v21.2zM87.4 203.8H36.6c-1.4 0-3.1-.2-4.2-.9-.9-.7-1.6-2.5-1.3-3.5.3-1.2 1.5-2.5 2.7-3.1 1.1-.6 2.7-.3 4-.3H139.4c2.6-.1 4.5 1 4.5 3.8.1 3-1.8 4.1-4.6 4.1h-37.4c-4.7-.1-9.6-.1-14.5-.1zM76.4 294.2h38.5c1.1 0 2.5-.3 3.3.2 1.3.9 2.8 2.4 2.9 3.7 0 1.3-1.5 2.8-2.7 3.8-.6.5-1.9.3-2.9.3H37c-1 0-2.3.3-2.9-.2-1.2-1-3-2.5-2.9-3.7.1-1.4 1.8-2.9 3.1-3.9.7-.6 2.2-.2 3.3-.2h38.8zM77.6 228.4H37.2c-1.1 0-2.5.3-3.3-.2-1.3-.9-2.9-2.4-2.9-3.7 0-1.3 1.5-2.9 2.8-3.7 1-.6 2.7-.3 4-.3h81.8c2.7 0 4.7 1 4.6 4.1-.1 3.1-2.2 3.8-4.9 3.8H77.6zM322.5 253h-25.8c-3 0-5.4-.6-5.4-4.1 0-3.2 2.4-4 5.2-4h52.3c2.8 0 5.1 1 5 4.1-.1 3.2-2.4 4-5.2 3.9-8.7.1-17.4.1-26.1.1zM322.6 195.9h25.8c2.9 0 5.5.6 5.4 4.1-.1 3.2-2.5 3.8-5.3 3.8h-51.9c-2.9 0-5.5-.5-5.4-4 .1-3.6 2.8-3.9 5.6-3.8 8.7 0 17.3-.1 25.8-.1zM332.7 228.4c-5.4 0-10.7-.1-16.1 0-2.9 0-5.1-.8-5.1-4 0-3.3 2.4-3.9 5.2-3.9h32.2c2.7 0 4.9.8 4.9 3.8.1 3.2-2.1 4.1-5 4.1-5.4-.1-10.7 0-16.1 0z"/></svg>