<?xml version="1.0" encoding="utf-8"?>
<!-- Generator: Adobe Illustrator 25.3.0, SVG Export Plug-In . SVG Version: 6.00 Build 0)  -->
<svg version="1.1" id="Calque_1" xmlns="http://www.w3.org/2000/svg" xmlns:xlink="http://www.w3.org/1999/xlink" x="0px" y="0px"
	 viewBox="0 0 384 384" style="enable-background:new 0 0 384 384;" xml:space="preserve">
<g>
	<g>
		<path d="M0.7,327.9c1.6-6,2.7-12.2,5-17.9c6.6-16.1,18.1-27.5,34.1-34.4c0.5-0.2,0.9-0.4,1.4-0.6c0.2-0.1,0.4-0.3,0.9-0.7
			c-9.6-9-14.2-19.9-12.1-33.1c1.4-8.7,5.7-15.9,12.5-21.5c14-11.4,34.6-10.3,47.3,2.5c11.4,11.5,16.5,34-2,51.9
			c4.9,2.9,10.2,5.5,14.8,9c16.4,12.3,25.1,29,26,49.5c0.2,5.6-2,7.9-7.4,7.9c-37.7,0-75.3,0-113,0c-3.5,0-6-1.3-7.5-4.4
			C0.7,333.3,0.7,330.6,0.7,327.9z M13.6,328.3c34.1,0,68.2,0,102.2,0c1.7-21.9-24.7-45.7-50.7-46C39,282.1,12.1,306,13.6,328.3z
			 M64.5,270.3c12.9,0.1,23.4-10.1,23.7-23c0.2-12.7-10.3-23.5-23.1-23.6c-12.9-0.1-23.4,10.1-23.7,23
			C41.2,259.5,51.6,270.2,64.5,270.3z"/>
		<path d="M297.3,274.5c-18.9-18.1-14-41-2.1-52.6c13.7-13.3,35.1-13.5,49-0.5c12.1,11.3,17.7,34.5-1.1,52.7
			c4.9,2.9,10.2,5.5,14.8,9c16.5,12.3,25.1,29,26,49.5c0.3,5.6-2,7.9-7.5,7.9c-37.7,0-75.3,0-113,0c-5.3,0-7.7-2.3-7.4-7.6
			c1.4-26.2,14.1-45.1,37.6-56.7C294.7,275.6,295.9,275.1,297.3,274.5z M268.9,328.3c34.1,0,68.2,0,102.2,0c1.7-22.1-25-46-51.1-46
			C293.9,282.3,267.3,306.1,268.9,328.3z M319.7,270.3c12.9,0.1,23.4-10.1,23.7-23c0.2-12.7-10.3-23.5-23.1-23.6
			c-12.9-0.1-23.4,10.1-23.7,23C296.4,259.5,306.9,270.2,319.7,270.3z"/>
		<path d="M169.6,73.3c-19.5-18.5-13.3-42.5-1-53.5c14.1-12.7,35.8-12.2,49,1.4c12.5,12.8,15.2,35.5-2.6,52c1,0.5,2,1,2.9,1.5
			c23.7,11.5,36.7,30.2,38.3,56.7c0.3,5.8-1.8,7.9-7.7,7.9c-37.5,0-75.1,0-112.6,0c-5.6,0-7.8-2.2-7.5-7.8
			c1.5-26.8,14.7-45.6,38.8-57C168.1,74.1,168.8,73.7,169.6,73.3z M140.9,127.1c34.5,0,68.7,0,103,0c-1.8-24.9-25.1-45.6-51.3-45.8
			C166.4,81.1,142.9,101.8,140.9,127.1z M169.1,46c0,12.9,10.5,23.3,23.3,23.3c12.9-0.1,23.2-10.5,23.2-23.4
			c0-12.9-10.5-23.3-23.3-23.3C179.5,22.6,169.1,33.1,169.1,46z"/>
		<path d="M41.1,196.8c1.9-11.8,5.4-23.7,10.4-35.2c12.9-29.7,33.3-53,60.7-70.1c1-0.6,1.9-1.2,2.9-1.7c3-1.4,5.6-0.7,7.6,2
			c1.8,2.5,1.3,6.1-1.3,8c-3,2.2-6.3,4.1-9.3,6.2c-32,22.5-51.6,53.1-58.9,91.5c-0.8,4.4-3,6.7-6.3,6.6
			C43.4,204.2,40.9,201.3,41.1,196.8z"/>
		<path d="M343.7,197.7c-0.1,3.7-2.3,6.2-5.4,6.5c-3.1,0.3-5.7-1.9-6.5-5.5c-1.5-6.3-2.7-12.7-4.6-18.8
			c-10.4-33.1-30.5-58.7-59.7-77.4c-1-0.7-2.1-1.3-3.2-2c-3.3-2.3-4.2-5.7-2.3-8.7c1.9-2.8,5.3-3.7,8.5-1.5
			c7.6,5.2,15.5,10.2,22.4,16.2c27.3,23.6,43.9,53.4,50.5,88.9C343.6,196.3,343.6,197.2,343.7,197.7z"/>
		<path d="M192.3,376.2c-18.5-0.7-36.4-3.8-53.8-10.3c-4.2-1.6-5.9-4.5-4.7-7.9c1.3-3.6,4.4-4.9,8.9-3.2c16,5.9,32.6,9,49.7,8.9
			c16.1,0,31.7-2.6,46.9-8c0.9-0.3,1.9-0.6,2.8-1c4.3-1.4,7.4-0.3,8.7,3.1c1.3,3.5-0.2,6.8-4.5,8c-9.2,2.7-18.3,5.6-27.7,7.4
			C210,374.9,201.1,375.3,192.3,376.2z"/>
	</g>
</g>
</svg>
