<?xml version="1.0" encoding="utf-8"?>
<!-- Generator: Adobe Illustrator 25.3.0, SVG Export Plug-In . SVG Version: 6.00 Build 0)  -->
<svg version="1.1" id="Calque_1" xmlns="http://www.w3.org/2000/svg" xmlns:xlink="http://www.w3.org/1999/xlink" x="0px" y="0px"
	 viewBox="0 0 97.7 14.1" style="enable-background:new 0 0 97.7 14.1;" xml:space="preserve">
<style type="text/css">
	.st0{fill:#1D1D1B;}
</style>
<g>
	<path class="st0" d="M18.8,13.7c-0.4,0-0.6-0.2-0.8-0.5l-3.7-8l-4,8.1c-0.2,0.3-0.4,0.5-0.8,0.5H6.7c-0.3,0-0.6-0.1-0.7-0.5L0,0.7
		L1.5,0l5.7,12H9l4.6-9.2c0.2-0.4,0.5-0.6,0.8-0.6s0.5,0.2,0.7,0.6l4.2,9.2h1.7l6-12l1.5,0.7l-6.2,12.5c-0.2,0.3-0.4,0.5-0.7,0.5
		H18.8z"/>
	<path class="st0" d="M30.1,13.7V0.4h1.7v13.3H30.1z"/>
	<path class="st0" d="M33.9,13.7V12h15v1.6H33.9z M41.6,10.1l-1.1-1.2l6.8-6.7V2H34.3V0.4h13.7c0.5,0,0.8,0.3,0.8,0.8v1.3
		c0,0.2-0.1,0.4-0.3,0.6L41.6,10.1z"/>
	<path class="st0" d="M66.9,9.8V8.2H70c2.6,0,3.1-0.6,3.1-3.1c0-2.5-0.5-3-4.2-3h-8v11.6h-1.6V1.2c0-0.6,0.3-0.8,0.8-0.8H69
		c4.8,0,5.8,1.1,5.8,4.8c0,3.5-0.9,4.6-4.8,4.6H66.9z"/>
	<path class="st0" d="M76.6,13.7V0.4h1.7v13.3H76.6z"/>
	<path class="st0" d="M81,14.1l-1.1-1.2L86.1,7l-6-5.8L81.2,0l6.6,6.4c0.2,0.2,0.3,0.4,0.3,0.6c0,0.2-0.1,0.4-0.3,0.6L81,14.1z
		 M89.8,7.6c-0.2-0.2-0.3-0.4-0.3-0.6c0-0.1,0-0.3,0.3-0.6L96.5,0l1.1,1.2L91.6,7l6.1,5.9l-1.1,1.2L89.8,7.6z"/>
</g>
</svg>
