<?xml version="1.0" encoding="utf-8"?>
<!-- Generator: Adobe Illustrator 25.3.0, SVG Export Plug-In . SVG Version: 6.00 Build 0)  -->
<svg version="1.1" id="Calque_1" xmlns="http://www.w3.org/2000/svg" xmlns:xlink="http://www.w3.org/1999/xlink" x="0px" y="0px"
	 viewBox="0 0 70 13.7" style="enable-background:new 0 0 70 13.7;" xml:space="preserve">
<style type="text/css">
	.Ombre_x0020_portée{fill:none;}
	.Lueur_x0020_externe_x0020_5 pt{fill:none;}
	.Néon_x0020_bleu{fill:none;stroke:#89ACDA;stroke-width:7;stroke-linecap:round;stroke-linejoin:round;}
	.Ton_x0020_clair_x0020_chrome{fill:url(#SVGID_1_);stroke:#FFFFFF;stroke-width:0.3629;stroke-miterlimit:1;}
	.Swing_GS{fill:#FFDD06;}
	.Alysse_GS{fill:#A7D0E4;}
	.st0{fill:#41BEE0;}
	.st1{fill:#F39207;}
	.st2{display:none;}
	.st3{display:inline;}
	.st4{fill:#3D3082;}
	.st5{fill:#FBEA23;}
	.st6{fill:#3F3633;}
	.st7{fill:#009C56;}
	.st8{fill:#1C9038;}
	.st9{fill:#E74310;}
	.st10{fill:#523D2A;}
	.st11{fill:#3EA4DC;}
	.st12{fill:#FCEA21;}
	.st13{fill:#E83081;}
	.st14{fill:#F9C7C1;}
	.st15{fill:#A1C62F;}
	.st16{fill:#A5D7D6;}
	.st17{fill:#5DB139;}
	.st18{fill:#AB8020;}
	.st19{fill:#9E1A79;}
	.st20{fill:#E84328;}
	.st21{fill:#36A3DC;}
	.st22{fill:#98C44A;}
	.st23{fill:#9F4334;}
	.st24{fill:#26974E;}
	.st25{fill:#F8BFB7;}
	.st26{fill:#C51C1F;}
	.st27{fill:#5C81A7;}
	.st28{fill:#FAEA3A;}
	.st29{fill:#E93E89;}
	.st30{fill:#9C2684;}
	.st31{fill:#9B2684;}
	.st32{fill:#5A3438;}
	.st33{fill:#00A361;}
	.st34{fill:#3B398C;}
	.st35{fill:#2CB8C7;}
	.st36{fill:#57B368;}
	.st37{fill:#F1861A;}
</style>
<linearGradient id="SVGID_1_" gradientUnits="userSpaceOnUse" x1="-81.2378" y1="-38.0366" x2="-81.2378" y2="-39.0366">
	<stop  offset="0" style="stop-color:#666665"/>
	<stop  offset="0.618" style="stop-color:#1B1B1B"/>
	<stop  offset="0.6292" style="stop-color:#555454"/>
	<stop  offset="0.9831" style="stop-color:#3E3E3E"/>
</linearGradient>
<path d="M16.8,0.9l-2.1,11.8c0,0.2-0.2,0.4-0.3,0.6s-0.4,0.3-0.6,0.3c-0.2,0-0.5,0-0.7-0.1s-0.4-0.2-0.5-0.4L8.4,6.3l-4.2,6.9
	c-0.1,0.2-0.2,0.3-0.4,0.4s-0.4,0.1-0.6,0.1c-0.3,0-0.5-0.1-0.7-0.3S2.2,13,2.1,12.7L0,0.9h2.3l1.5,8.3l3.6-5.7
	c0.1-0.2,0.2-0.3,0.4-0.4S8.2,3,8.4,3S8.8,3,9,3.1s0.3,0.2,0.4,0.4L13,9.2l1.5-8.3H16.8z"/>
<path class="st0" d="M20.8,2h-2.3V0h2.3v0.1V2z M20.8,13.5h-2.3V4h2.3V13.5z"/>
<path d="M31.9,4.7C32,4.9,32.1,5.2,32,5.4S31.9,5.8,31.7,6l-5.3,5.3h5.5v2.3h-8.2c-0.2,0-0.4-0.1-0.6-0.2s-0.3-0.3-0.4-0.5
	c-0.1-0.2-0.1-0.4-0.1-0.7s0.2-0.4,0.3-0.6l5.3-5.3h-5.5V4h8.3c0.2,0,0.4,0.1,0.6,0.2S31.9,4.5,31.9,4.7z"/>
<path d="M52.4,6.2c0,0.5-0.1,1-0.2,1.4s-0.3,0.8-0.5,1.1c-0.2,0.3-0.5,0.6-0.8,0.8S50.4,9.9,50,10c-0.3,0.1-0.6,0.2-0.9,0.3
	c-0.3,0.1-0.6,0.1-0.9,0.1H43V8.1h5.2c0.3,0,0.6-0.1,0.8-0.2c0.2-0.1,0.4-0.2,0.6-0.4S49.9,7.2,50,7s0.1-0.5,0.1-0.8v-1
	c0-0.3-0.1-0.6-0.2-0.8s-0.2-0.4-0.4-0.6c-0.2-0.2-0.4-0.3-0.6-0.4s-0.5-0.1-0.8-0.1H43c-0.3,0-0.5,0.1-0.7,0.2s-0.2,0.4-0.2,0.7
	v9.4h-2.3V4.1c0-0.6,0.1-1.1,0.3-1.5c0.2-0.4,0.5-0.7,0.8-1s0.7-0.4,1-0.5s0.7-0.2,1-0.2h5.2c0.5,0,1,0.1,1.4,0.2s0.8,0.3,1.1,0.5
	s0.6,0.5,0.8,0.8C51.7,2.7,51.9,3,52,3.3c0.1,0.3,0.2,0.6,0.3,0.9s0.1,0.6,0.1,0.9V6.2z"/>
<path class="st1" d="M56.4,2.1h-2.3V0h2.3V2.1z M56.4,13.5h-2.3V4h2.3V13.5z"/>
<path d="M69.5,4l-4.1,4.5l4.6,5h-3.1l-3-3.3l-3,3.3h-3.2l4.6-5L58.1,4h3.1l2.5,2.8L66.3,4H69.5z"/>
<g class="st2">
	<path class="st3" d="M-3.2-18.1L-5.3-6.3c0,0.2-0.2,0.4-0.3,0.6S-6-5.4-6.2-5.3c-0.2,0-0.5,0-0.7-0.1s-0.4-0.2-0.5-0.4l-4.2-6.9
		l-4.2,6.9c-0.1,0.2-0.2,0.3-0.4,0.4s-0.4,0.1-0.6,0.1c-0.3,0-0.5-0.1-0.7-0.3s-0.3-0.4-0.4-0.7L-20-18.1h2.3l1.5,8.3l3.6-5.7
		c0.1-0.2,0.2-0.3,0.4-0.4s0.4-0.1,0.6-0.1s0.4,0,0.6,0.1s0.3,0.2,0.4,0.4L-7-9.8l1.5-8.3H-3.2z"/>
	<path class="st3" d="M0.8-16.9h-2.3V-19h2.3V-16.9z M0.8-5.5h-2.3V-15h2.3V-5.5z"/>
	<path class="st3" d="M11.9-14.3c0.1,0.2,0.1,0.4,0.1,0.7s-0.1,0.4-0.3,0.6L6.4-7.8h5.5v2.3H3.7C3.4-5.5,3.2-5.5,3-5.7
		S2.7-6,2.6-6.2C2.5-6.4,2.5-6.6,2.5-6.8s0.2-0.4,0.3-0.6l5.3-5.3H2.6V-15h8.3c0.2,0,0.4,0.1,0.6,0.2S11.9-14.5,11.9-14.3z"/>
	<path class="st3" d="M32.4-12.8c0,0.5-0.1,1-0.2,1.4s-0.3,0.8-0.5,1.1c-0.2,0.3-0.5,0.6-0.8,0.8S30.4-9.1,30-9
		c-0.3,0.1-0.6,0.2-0.9,0.3c-0.3,0.1-0.6,0.1-0.9,0.1H23v-2.3h5.2c0.3,0,0.6-0.1,0.8-0.2c0.2-0.1,0.4-0.2,0.6-0.4s0.3-0.4,0.4-0.6
		s0.1-0.5,0.1-0.8v-1c0-0.3-0.1-0.6-0.2-0.8s-0.2-0.4-0.4-0.6c-0.2-0.2-0.4-0.3-0.6-0.4s-0.5-0.1-0.8-0.1H23c-0.3,0-0.5,0.1-0.7,0.2
		s-0.2,0.4-0.2,0.7v9.4h-2.3v-9.4c0-0.6,0.1-1.1,0.3-1.5c0.2-0.4,0.5-0.7,0.8-1s0.7-0.4,1-0.5s0.7-0.2,1-0.2h5.2
		c0.5,0,1,0.1,1.4,0.2s0.8,0.3,1.1,0.5s0.6,0.5,0.8,0.8c0.2,0.3,0.4,0.6,0.5,0.9c0.1,0.3,0.2,0.6,0.3,0.9s0.1,0.6,0.1,0.9V-12.8z"/>
	<path class="st3" d="M36.4-16.9h-2.3V-19h2.3V-16.9z M36.4-5.5h-2.3V-15h2.3V-5.5z"/>
	<path class="st3" d="M49.5-15l-4.1,4.5l4.6,5h-3.1l-3-3.3l-3,3.3h-3.2l4.6-5L38.1-15h3.1l2.5,2.8l2.5-2.8H49.5z"/>
</g>
<g class="st2">
	<g class="st3">
		<path class="st4" d="M1.4-28l-2.8-7.7l-2.3,0.8l3.8,10.6L1.4-28z M0.2-24.3C0.2-24.3,0.2-24.3,0.2-24.3
			C0.2-24.3,0.2-24.3,0.2-24.3 M0.2-24.3c0.1,0.2,0.1,0.3,0.2,0.4C0.3-24,0.3-24.1,0.2-24.3 M0.4-23.9C0.4-23.9,0.4-23.9,0.4-23.9
			C0.4-23.9,0.4-23.9,0.4-23.9 M2.2-23.8C2.2-23.8,2.2-23.8,2.2-23.8C2.2-23.8,2.2-23.8,2.2-23.8 M2.2-23.8
			c-0.1,0.1-0.2,0.2-0.4,0.2C1.9-23.6,2-23.7,2.2-23.8 M1.8-23.6C1.8-23.6,1.8-23.6,1.8-23.6C1.8-23.6,1.8-23.6,1.8-23.6 M1.7-23.5
			C1.7-23.5,1.7-23.5,1.7-23.5C1.7-23.5,1.7-23.5,1.7-23.5 M1.7-23.5C1.7-23.5,1.7-23.5,1.7-23.5C1.7-23.5,1.7-23.5,1.7-23.5
			 M1.7-23.5c-0.1,0-0.2,0-0.3,0c0,0,0,0,0,0c0,0,0,0,0,0C1.5-23.5,1.6-23.5,1.7-23.5 M1.3-23.5C1.3-23.5,1.3-23.5,1.3-23.5
			C1.3-23.5,1.3-23.5,1.3-23.5"/>
		<polygon class="st5" points="2.5,-24.2 5.8,-32 4.8,-35.8 1.4,-28 		"/>
		<path class="st6" d="M1.4-28l-1.2,2.8c-0.1,0.3-0.1,0.6,0,0.9l0,0c0,0,0,0,0,0c0,0,0,0,0,0c0,0,0,0,0,0c0.1,0.1,0.1,0.3,0.2,0.4
			c0,0,0,0,0,0c0,0,0,0,0,0c0.2,0.2,0.5,0.4,0.9,0.4c0,0,0,0,0,0c0,0,0,0,0,0c0,0,0,0,0,0c0.1,0,0.2,0,0.3,0c0,0,0,0,0,0
			c0,0,0,0,0,0c0,0,0,0,0,0c0,0,0,0,0,0c0,0,0,0,0.1,0c0,0,0,0,0,0c0,0,0,0,0,0c0,0,0,0,0,0c0.1-0.1,0.3-0.1,0.4-0.2c0,0,0,0,0,0
			c0,0,0,0,0,0c0.4-0.3,0.5-0.8,0.3-1.3L1.4-28"/>
		<path class="st7" d="M7.1-35.7L5.8-32l2.8,7.7c-0.1-0.3-0.1-0.6,0-0.8l1.2-3.1L7.1-35.7"/>
		<path class="st8" d="M5.9-36.5c-0.1,0-0.3,0-0.4,0.1c0,0,0,0,0,0c0,0,0,0,0,0c0,0,0,0,0,0c-0.2,0.1-0.3,0.1-0.4,0.3
			c-0.1,0.1-0.2,0.2-0.3,0.4c0,0,0,0,0,0l0,0c-0.1,0.3-0.1,0.6,0,0.9l1,2.9l1.2-2.8c0.1-0.3,0.1-0.6,0-0.9l0,0c0,0,0,0,0,0
			c0,0,0,0,0,0c0,0,0,0,0,0C7-35.9,6.9-36,6.8-36.1C6.6-36.3,6.3-36.5,5.9-36.5C6-36.5,6-36.5,5.9-36.5C6-36.5,6-36.5,5.9-36.5
			C6-36.5,6-36.5,5.9-36.5"/>
		<path class="st7" d="M10.9-24.3L10.9-24.3C10.9-24.3,10.9-24.2,10.9-24.3C10.9-24.2,10.9-24.3,10.9-24.3 M8.6-24.3
			c0.1,0.2,0.2,0.3,0.3,0.4C8.8-24,8.7-24.1,8.6-24.3 M8.9-23.8C8.9-23.8,8.9-23.8,8.9-23.8C8.9-23.8,8.9-23.8,8.9-23.8 M10.6-23.8
			C10.6-23.8,10.6-23.8,10.6-23.8C10.6-23.8,10.6-23.8,10.6-23.8 M10.6-23.8c-0.1,0.1-0.3,0.2-0.4,0.3
			C10.4-23.6,10.5-23.7,10.6-23.8 M9.3-23.6L9.3-23.6 M9.3-23.6c0.1,0,0.2,0.1,0.2,0.1C9.5-23.5,9.4-23.5,9.3-23.6
			C9.3-23.6,9.3-23.6,9.3-23.6 M10.2-23.6C10.2-23.6,10.2-23.6,10.2-23.6C10.2-23.6,10.2-23.6,10.2-23.6 M10.1-23.5
			C10.1-23.5,10.1-23.5,10.1-23.5L10.1-23.5 M10-23.5C10-23.5,10-23.5,10-23.5C10-23.5,10-23.5,10-23.5 M10-23.5c-0.1,0-0.2,0-0.3,0
			c0,0,0,0-0.1,0c0,0,0,0,0.1,0C9.9-23.5,9.9-23.5,10-23.5 M9.5-23.5C9.5-23.5,9.5-23.5,9.5-23.5C9.5-23.5,9.5-23.5,9.5-23.5
			 M9.5-23.5C9.5-23.5,9.5-23.5,9.5-23.5C9.5-23.5,9.5-23.5,9.5-23.5 M9.5-23.5C9.5-23.5,9.5-23.5,9.5-23.5
			C9.5-23.5,9.5-23.5,9.5-23.5 M9.7-23.5C9.7-23.5,9.7-23.5,9.7-23.5C9.7-23.5,9.7-23.5,9.7-23.5 M9.7-23.5
			C9.7-23.5,9.7-23.5,9.7-23.5C9.7-23.5,9.7-23.5,9.7-23.5 M9.7-23.5C9.7-23.5,9.7-23.5,9.7-23.5C9.7-23.5,9.7-23.5,9.7-23.5"/>
		<path class="st9" d="M10.9-24.3l4-10.6l-2.3-0.9l-2.8,7.5L10.9-24.3z M8.6-24.3C8.6-24.3,8.6-24.3,8.6-24.3
			C8.6-24.3,8.6-24.3,8.6-24.3L8.6-24.3 M10.9-24.2c-0.1,0.1-0.1,0.3-0.3,0.4C10.7-23.9,10.8-24.1,10.9-24.2 M8.9-23.8
			C8.9-23.8,8.9-23.8,8.9-23.8C8.9-23.8,8.9-23.8,8.9-23.8 M8.9-23.8c0.1,0.1,0.2,0.2,0.4,0.3C9.1-23.6,9-23.7,8.9-23.8 M10.6-23.8
			C10.6-23.8,10.6-23.8,10.6-23.8C10.6-23.8,10.6-23.8,10.6-23.8 M9.3-23.6C9.3-23.6,9.3-23.6,9.3-23.6C9.3-23.6,9.3-23.6,9.3-23.6
			 M10.2-23.6C10.2-23.6,10.2-23.6,10.2-23.6C10.2-23.6,10.2-23.6,10.2-23.6 M10.2-23.6C10.2-23.6,10.2-23.6,10.2-23.6
			c-0.1,0-0.1,0-0.1,0C10.1-23.5,10.1-23.5,10.2-23.6 M10.1-23.5C10.1-23.5,10.1-23.5,10.1-23.5C10.1-23.5,10.1-23.5,10.1-23.5
			 M10-23.5C10-23.5,10-23.5,10-23.5C10-23.5,10-23.5,10-23.5 M9.5-23.5C9.5-23.5,9.5-23.5,9.5-23.5C9.5-23.5,9.5-23.5,9.5-23.5
			 M9.5-23.5C9.5-23.5,9.5-23.5,9.5-23.5C9.5-23.5,9.5-23.5,9.5-23.5 M9.5-23.5C9.5-23.5,9.5-23.5,9.5-23.5
			C9.5-23.5,9.5-23.5,9.5-23.5 M9.5-23.5c0,0,0.1,0,0.1,0C9.6-23.5,9.6-23.5,9.5-23.5 M9.7-23.5C9.7-23.5,9.7-23.5,9.7-23.5
			C9.7-23.5,9.7-23.5,9.7-23.5 M9.7-23.5C9.7-23.5,9.7-23.5,9.7-23.5C9.7-23.5,9.7-23.5,9.7-23.5 M9.7-23.5
			C9.7-23.5,9.7-23.5,9.7-23.5C9.7-23.5,9.7-23.5,9.7-23.5"/>
		<path class="st10" d="M9.8-28.2l-1.2,3.1c-0.1,0.3-0.1,0.6,0,0.8l0,0c0,0,0,0,0,0c0.1,0.2,0.2,0.3,0.3,0.4c0,0,0,0,0,0
			c0,0,0,0,0,0c0.1,0.1,0.2,0.2,0.4,0.3l0,0c0,0,0,0,0,0c0,0,0,0,0,0c0.1,0,0.1,0,0.2,0.1c0,0,0,0,0,0c0,0,0,0,0,0c0,0,0,0,0,0
			c0,0,0,0,0,0c0,0,0,0,0,0c0,0,0,0,0,0c0,0,0.1,0,0.1,0c0,0,0,0,0,0c0,0,0,0,0,0c0,0,0,0,0,0c0,0,0,0,0,0c0,0,0,0,0,0c0,0,0,0,0,0
			c0,0,0,0,0.1,0c0.1,0,0.2,0,0.3,0c0,0,0,0,0,0c0,0,0,0,0,0c0,0,0,0,0,0c0,0,0,0,0,0c0,0,0.1,0,0.1,0c0,0,0,0,0,0c0,0,0,0,0,0
			c0,0,0,0,0,0c0.2-0.1,0.3-0.2,0.4-0.3c0,0,0,0,0,0c0,0,0,0,0,0c0.1-0.1,0.2-0.2,0.3-0.4c0,0,0,0,0,0l0,0c0.1-0.3,0.1-0.6,0-0.8
			L9.8-28.2"/>
		<path class="st11" d="M-3.7-35.3c0-0.7,0.5-1.2,1.2-1.2s1.2,0.5,1.2,1.2c0,0.7-0.5,1.2-1.2,1.2S-3.7-34.6-3.7-35.3L-3.7-35.3z"/>
		<path class="st12" d="M12.5-35.3c0-0.7,0.5-1.2,1.2-1.2S15-36,15-35.3c0,0.7-0.5,1.2-1.2,1.2S12.5-34.6,12.5-35.3L12.5-35.3z"/>
		<path class="st1" d="M4.7-35.3c0-0.7,0.5-1.2,1.2-1.2s1.2,0.5,1.2,1.2c0,0.7-0.5,1.2-1.2,1.2S4.7-34.6,4.7-35.3L4.7-35.3z"/>
	</g>
	<g class="st3">
		<rect x="16.6" y="-32.1" class="st13" width="2.4" height="7.4"/>
		<circle class="st1" cx="17.8" cy="-35.7" r="1.2"/>
		<circle class="st7" cx="17.8" cy="-24.7" r="1.2"/>
		<path class="st14" d="M16.6-32.1c0-0.7,0.5-1.2,1.2-1.2s1.2,0.5,1.2,1.2c0,0.7-0.5,1.2-1.2,1.2S16.6-31.4,16.6-32.1L16.6-32.1z"/>
	</g>
	<g class="st3">
		<polygon class="st15" points="28.5,-25.9 25,-25.9 22.4,-23.5 28.5,-23.5 		"/>
		<path class="st1" d="M22.4-30.8h3.5l2.6-2.4h-6.1V-30.8z M28.5-33.2C28.5-33.2,28.5-33.2,28.5-33.2"/>
		<polygon class="st16" points="25,-25.9 29.4,-31.2 25.9,-30.8 21.4,-25.5 		"/>
		<path class="st17" d="M25-25.9h-2.6c-1.2,0-1.7,1.6-0.6,2.2c0.5,0.3,1.2,0.2,1.6-0.2L25-25.9z"/>
		<path class="st18" d="M28.5-33.2c-0.3,0-0.7,0.1-0.9,0.4l-1.7,2h2.6c0.4,0,0.7-0.2,0.9-0.5C30.1-32,29.5-33.2,28.5-33.2"/>
		<circle class="st13" cx="28.5" cy="-24.7" r="1.2"/>
		<path class="st19" d="M21.1-32c0-0.7,0.5-1.2,1.2-1.2s1.2,0.5,1.2,1.2c0,0.7-0.5,1.2-1.2,1.2S21.1-31.3,21.1-32L21.1-32z"/>
	</g>
	<g class="st3">
		<rect x="34.1" y="-35.3" class="st20" width="2.4" height="10.6"/>
		<path class="st21" d="M39.7-36.5C39.7-36.5,39.7-36.5,39.7-36.5c0.7,0,1.2,0.5,1.2,1.2c0,0.7-0.5,1.2-1.2,1.2l0,0
			c0.3,0,0.6,0.1,0.8,0.2c0.4,0.2,0.7,0.4,1,0.8c0.1,0.2,0.2,0.4,0.3,0.6c0.1,0.2,0.1,0.4,0.1,0.6c0,0.3-0.1,0.6-0.2,0.8
			c-0.2,0.4-0.4,0.7-0.8,1c-0.2,0.1-0.4,0.2-0.6,0.3c-0.2,0.1-0.4,0.1-0.6,0.1c0.7,0,1.2,0.5,1.2,1.2c0,0.7-0.5,1.2-1.2,1.2l0,0
			c0,0,0,0,0,0c0.6,0,1.2-0.1,1.8-0.4c0.8-0.4,1.5-0.9,2-1.7c0.2-0.4,0.4-0.8,0.6-1.2c0.1-0.4,0.2-0.9,0.2-1.4
			c0-0.6-0.1-1.2-0.4-1.8c-0.4-0.8-0.9-1.5-1.7-2c-0.4-0.2-0.8-0.4-1.2-0.6C40.6-36.4,40.1-36.5,39.7-36.5"/>
		<line class="st22" x1="39.7" y1="-29.7" x2="39.7" y2="-29.7"/>
		<rect x="36.5" y="-29.7" class="st22" width="3.1" height="2.4"/>
		<path class="st23" d="M36.5-29.7h-1.2c-0.7,0-1.2,0.5-1.2,1.2c0,0.7,0.5,1.2,1.2,1.2h1.2V-29.7"/>
		<path class="st24" d="M39.7-29.7L39.7-29.7c-0.7,0-1.2,0.5-1.2,1.2c0,0.7,0.5,1.2,1.2,1.2l0,0c0.7,0,1.2-0.5,1.2-1.2
			C40.9-29.2,40.3-29.7,39.7-29.7"/>
		<path class="st25" d="M35.3-36.5"/>
		<line class="st25" x1="39.7" y1="-36.5" x2="39.7" y2="-36.5"/>
		<polygon class="st25" points="39.7,-36.5 35.3,-36.5 36.5,-34.1 39.7,-34.1 		"/>
		<path class="st26" d="M34.1-35.3c0,0.7,0.5,1.2,1.2,1.2h1.2v-1.2H34.1z"/>
		<path class="st27" d="M39.7-36.5L39.7-36.5c-0.7,0-1.2,0.5-1.2,1.2c0,0.7,0.5,1.2,1.2,1.2l0,0c0.7,0,1.2-0.5,1.2-1.2
			C40.9-36,40.3-36.5,39.7-36.5"/>
		<circle class="st28" cx="35.3" cy="-35.3" r="1.2"/>
		<circle class="st29" cx="39.7" cy="-35.3" r="1.2"/>
		<circle class="st30" cx="35.3" cy="-24.7" r="1.2"/>
	</g>
	<g class="st3">
		<rect x="46.5" y="-32.1" class="st13" width="2.4" height="7.4"/>
		<circle class="st1" cx="47.7" cy="-35.7" r="1.2"/>
		<circle class="st7" cx="47.7" cy="-24.7" r="1.2"/>
		<path class="st14" d="M46.5-32.1c0-0.7,0.5-1.2,1.2-1.2s1.2,0.5,1.2,1.2c0,0.7-0.5,1.2-1.2,1.2S46.5-31.4,46.5-32.1L46.5-32.1z"/>
	</g>
	<g class="st3">
		<path class="st22" d="M51.3-31.2l2.4,2.9l1.6-1.9l-2.1-2.5L51.3-31.2z M56.9-28.3l-1.6,1.9l2.1,2.5c0.2,0.3,0.6,0.4,0.9,0.4
			c0.3,0,0.5-0.1,0.8-0.3c0.5-0.4,0.6-1.2,0.2-1.7L56.9-28.3"/>
		<path class="st31" d="M57.4-32.8l-2.1,2.5l1.6,1.9l2.4-2.9L57.4-32.8z M53.7-28.3l-2.4,2.9c-0.4,0.5-0.4,1.3,0.2,1.7
			c0.2,0.2,0.5,0.3,0.8,0.3c0.3,0,0.7-0.1,0.9-0.4l2.1-2.5L53.7-28.3"/>
		<polyline class="st32" points="55.3,-30.3 53.7,-28.3 55.3,-26.4 56.9,-28.3 55.3,-30.3 		"/>
		<path class="st33" d="M51-32c0-0.7,0.5-1.2,1.2-1.2s1.2,0.5,1.2,1.2c0,0.7-0.5,1.2-1.2,1.2S51-31.3,51-32L51-32z"/>
		<circle class="st34" cx="58.3" cy="-24.7" r="1.2"/>
		<path class="st29" d="M57.1-32c0-0.7,0.5-1.2,1.2-1.2s1.2,0.5,1.2,1.2c0,0.7-0.5,1.2-1.2,1.2S57.1-31.3,57.1-32L57.1-32z"/>
		<circle class="st35" cx="52.2" cy="-24.7" r="1.2"/>
	</g>
</g>
<g class="st2">
	<g class="st3">
		<path class="st4" d="M79.4-27l-2.8-7.7l-2.3,0.8l3.8,10.6L79.4-27z M78.2-23.3C78.2-23.3,78.2-23.3,78.2-23.3
			C78.2-23.3,78.2-23.3,78.2-23.3 M78.2-23.3c0.1,0.2,0.1,0.3,0.2,0.4C78.3-23,78.3-23.1,78.2-23.3 M78.4-22.9
			C78.4-22.9,78.4-22.9,78.4-22.9C78.4-22.9,78.4-22.9,78.4-22.9 M80.2-22.8C80.2-22.8,80.2-22.8,80.2-22.8
			C80.2-22.8,80.2-22.8,80.2-22.8 M80.2-22.8c-0.1,0.1-0.2,0.2-0.4,0.2C79.9-22.6,80-22.7,80.2-22.8 M79.8-22.6
			C79.8-22.6,79.8-22.6,79.8-22.6C79.8-22.6,79.8-22.6,79.8-22.6 M79.7-22.5C79.7-22.5,79.7-22.5,79.7-22.5
			C79.7-22.5,79.7-22.5,79.7-22.5 M79.7-22.5C79.7-22.5,79.7-22.5,79.7-22.5C79.7-22.5,79.7-22.5,79.7-22.5 M79.7-22.5
			c-0.1,0-0.2,0-0.3,0c0,0,0,0,0,0c0,0,0,0,0,0C79.5-22.5,79.6-22.5,79.7-22.5 M79.3-22.5C79.3-22.5,79.3-22.5,79.3-22.5
			C79.3-22.5,79.3-22.5,79.3-22.5"/>
		<polygon class="st5" points="80.5,-23.2 83.8,-31 82.8,-34.8 79.4,-27 		"/>
		<path class="st6" d="M79.4-27l-1.2,2.8c-0.1,0.3-0.1,0.6,0,0.9l0,0c0,0,0,0,0,0c0,0,0,0,0,0c0,0,0,0,0,0c0.1,0.1,0.1,0.3,0.2,0.4
			c0,0,0,0,0,0c0,0,0,0,0,0c0.2,0.2,0.5,0.4,0.9,0.4c0,0,0,0,0,0c0,0,0,0,0,0c0,0,0,0,0,0c0.1,0,0.2,0,0.3,0c0,0,0,0,0,0
			c0,0,0,0,0,0c0,0,0,0,0,0c0,0,0,0,0,0c0,0,0,0,0.1,0c0,0,0,0,0,0c0,0,0,0,0,0c0,0,0,0,0,0c0.1-0.1,0.3-0.1,0.4-0.2c0,0,0,0,0,0
			c0,0,0,0,0,0c0.4-0.3,0.5-0.8,0.3-1.3L79.4-27"/>
		<path class="st7" d="M85.1-34.7L83.8-31l2.8,7.7c-0.1-0.3-0.1-0.6,0-0.8l1.2-3.1L85.1-34.7"/>
		<path class="st8" d="M83.9-35.5c-0.1,0-0.3,0-0.4,0.1c0,0,0,0,0,0c0,0,0,0,0,0c0,0,0,0,0,0c-0.2,0.1-0.3,0.1-0.4,0.3
			c-0.1,0.1-0.2,0.2-0.3,0.4c0,0,0,0,0,0l0,0c-0.1,0.3-0.1,0.6,0,0.9l1,2.9l1.2-2.8c0.1-0.3,0.1-0.6,0-0.9l0,0c0,0,0,0,0,0
			c0,0,0,0,0,0c0,0,0,0,0,0c-0.1-0.1-0.1-0.3-0.2-0.4C84.6-35.3,84.3-35.5,83.9-35.5C84-35.5,84-35.5,83.9-35.5
			C84-35.5,84-35.5,83.9-35.5C84-35.5,84-35.5,83.9-35.5"/>
		<path class="st7" d="M88.9-23.3L88.9-23.3C88.9-23.3,88.9-23.2,88.9-23.3C88.9-23.2,88.9-23.3,88.9-23.3 M86.6-23.3
			c0.1,0.2,0.2,0.3,0.3,0.4C86.8-23,86.7-23.1,86.6-23.3 M86.9-22.8C86.9-22.8,86.9-22.8,86.9-22.8C86.9-22.8,86.9-22.8,86.9-22.8
			 M88.6-22.8C88.6-22.8,88.6-22.8,88.6-22.8C88.6-22.8,88.6-22.8,88.6-22.8 M88.6-22.8c-0.1,0.1-0.3,0.2-0.4,0.3
			C88.4-22.6,88.5-22.7,88.6-22.8 M87.3-22.6L87.3-22.6 M87.3-22.6c0.1,0,0.2,0.1,0.2,0.1C87.5-22.5,87.4-22.5,87.3-22.6
			C87.3-22.6,87.3-22.6,87.3-22.6 M88.2-22.6C88.2-22.6,88.2-22.6,88.2-22.6C88.2-22.6,88.2-22.6,88.2-22.6 M88.1-22.5
			C88.1-22.5,88.1-22.5,88.1-22.5L88.1-22.5 M88-22.5C88-22.5,88-22.5,88-22.5C88-22.5,88-22.5,88-22.5 M88-22.5c-0.1,0-0.2,0-0.3,0
			c0,0,0,0-0.1,0c0,0,0,0,0.1,0C87.9-22.5,87.9-22.5,88-22.5 M87.5-22.5C87.5-22.5,87.5-22.5,87.5-22.5
			C87.5-22.5,87.5-22.5,87.5-22.5 M87.5-22.5C87.5-22.5,87.5-22.5,87.5-22.5C87.5-22.5,87.5-22.5,87.5-22.5 M87.5-22.5
			C87.5-22.5,87.5-22.5,87.5-22.5C87.5-22.5,87.5-22.5,87.5-22.5 M87.7-22.5C87.7-22.5,87.7-22.5,87.7-22.5
			C87.7-22.5,87.7-22.5,87.7-22.5 M87.7-22.5C87.7-22.5,87.7-22.5,87.7-22.5C87.7-22.5,87.7-22.5,87.7-22.5 M87.7-22.5
			C87.7-22.5,87.7-22.5,87.7-22.5C87.7-22.5,87.7-22.5,87.7-22.5"/>
		<path class="st9" d="M88.9-23.3l4-10.6l-2.3-0.9l-2.8,7.5L88.9-23.3z M86.6-23.3C86.6-23.3,86.6-23.3,86.6-23.3
			C86.6-23.3,86.6-23.3,86.6-23.3L86.6-23.3 M88.9-23.2c-0.1,0.1-0.1,0.3-0.3,0.4C88.7-22.9,88.8-23.1,88.9-23.2 M86.9-22.8
			C86.9-22.8,86.9-22.8,86.9-22.8C86.9-22.8,86.9-22.8,86.9-22.8 M86.9-22.8c0.1,0.1,0.2,0.2,0.4,0.3C87.1-22.6,87-22.7,86.9-22.8
			 M88.6-22.8C88.6-22.8,88.6-22.8,88.6-22.8C88.6-22.8,88.6-22.8,88.6-22.8 M87.3-22.6C87.3-22.6,87.3-22.6,87.3-22.6
			C87.3-22.6,87.3-22.6,87.3-22.6 M88.2-22.6C88.2-22.6,88.2-22.6,88.2-22.6C88.2-22.6,88.2-22.6,88.2-22.6 M88.2-22.6
			C88.2-22.6,88.2-22.6,88.2-22.6c-0.1,0-0.1,0-0.1,0C88.1-22.5,88.1-22.5,88.2-22.6 M88.1-22.5C88.1-22.5,88.1-22.5,88.1-22.5
			C88.1-22.5,88.1-22.5,88.1-22.5 M88-22.5C88-22.5,88-22.5,88-22.5C88-22.5,88-22.5,88-22.5 M87.5-22.5
			C87.5-22.5,87.5-22.5,87.5-22.5C87.5-22.5,87.5-22.5,87.5-22.5 M87.5-22.5C87.5-22.5,87.5-22.5,87.5-22.5
			C87.5-22.5,87.5-22.5,87.5-22.5 M87.5-22.5C87.5-22.5,87.5-22.5,87.5-22.5C87.5-22.5,87.5-22.5,87.5-22.5 M87.5-22.5
			c0,0,0.1,0,0.1,0C87.6-22.5,87.6-22.5,87.5-22.5 M87.7-22.5C87.7-22.5,87.7-22.5,87.7-22.5C87.7-22.5,87.7-22.5,87.7-22.5
			 M87.7-22.5C87.7-22.5,87.7-22.5,87.7-22.5C87.7-22.5,87.7-22.5,87.7-22.5 M87.7-22.5C87.7-22.5,87.7-22.5,87.7-22.5
			C87.7-22.5,87.7-22.5,87.7-22.5"/>
		<path class="st10" d="M87.8-27.2l-1.2,3.1c-0.1,0.3-0.1,0.6,0,0.8l0,0c0,0,0,0,0,0c0.1,0.2,0.2,0.3,0.3,0.4c0,0,0,0,0,0
			c0,0,0,0,0,0c0.1,0.1,0.2,0.2,0.4,0.3l0,0c0,0,0,0,0,0c0,0,0,0,0,0c0.1,0,0.1,0,0.2,0.1c0,0,0,0,0,0c0,0,0,0,0,0c0,0,0,0,0,0
			c0,0,0,0,0,0c0,0,0,0,0,0c0,0,0,0,0,0c0,0,0.1,0,0.1,0c0,0,0,0,0,0c0,0,0,0,0,0c0,0,0,0,0,0c0,0,0,0,0,0c0,0,0,0,0,0c0,0,0,0,0,0
			c0,0,0,0,0.1,0c0.1,0,0.2,0,0.3,0c0,0,0,0,0,0c0,0,0,0,0,0c0,0,0,0,0,0c0,0,0,0,0,0c0,0,0.1,0,0.1,0c0,0,0,0,0,0c0,0,0,0,0,0
			c0,0,0,0,0,0c0.2-0.1,0.3-0.2,0.4-0.3c0,0,0,0,0,0c0,0,0,0,0,0c0.1-0.1,0.2-0.2,0.3-0.4c0,0,0,0,0,0l0,0c0.1-0.3,0.1-0.6,0-0.8
			L87.8-27.2"/>
		<path class="st11" d="M74.3-34.3c0-0.7,0.5-1.2,1.2-1.2s1.2,0.5,1.2,1.2c0,0.7-0.5,1.2-1.2,1.2S74.3-33.6,74.3-34.3L74.3-34.3z"/>
		<path class="st12" d="M90.5-34.3c0-0.7,0.5-1.2,1.2-1.2S93-35,93-34.3c0,0.7-0.5,1.2-1.2,1.2S90.5-33.6,90.5-34.3L90.5-34.3z"/>
		<path class="st1" d="M82.7-34.3c0-0.7,0.5-1.2,1.2-1.2s1.2,0.5,1.2,1.2c0,0.7-0.5,1.2-1.2,1.2S82.7-33.6,82.7-34.3L82.7-34.3z"/>
	</g>
	<g class="st3">
		<rect x="94.6" y="-31.1" class="st13" width="2.4" height="7.4"/>
		<path class="st1" d="M94.6-34.7c0-0.7,0.5-1.2,1.2-1.2s1.2,0.5,1.2,1.2c0,0.7-0.5,1.2-1.2,1.2S94.6-34.1,94.6-34.7L94.6-34.7z"/>
		<path class="st7" d="M94.6-23.7c0-0.7,0.5-1.2,1.2-1.2s1.2,0.5,1.2,1.2c0,0.7-0.5,1.2-1.2,1.2S94.6-23,94.6-23.7L94.6-23.7z"/>
		<path class="st14" d="M94.6-31.1c0-0.7,0.5-1.2,1.2-1.2s1.2,0.5,1.2,1.2c0,0.7-0.5,1.2-1.2,1.2S94.6-30.4,94.6-31.1L94.6-31.1z"/>
	</g>
	<g class="st3">
		<polygon class="st15" points="106.5,-24.9 103,-24.9 100.4,-22.5 106.5,-22.5 		"/>
		<path class="st1" d="M100.4-29.8h3.5l2.6-2.4h-6.1V-29.8z M106.5-32.2C106.5-32.2,106.5-32.2,106.5-32.2"/>
		<polygon class="st16" points="103,-24.9 107.4,-30.2 103.9,-29.8 99.4,-24.5 		"/>
		<path class="st17" d="M103-24.9h-2.6c-1.2,0-1.7,1.6-0.6,2.2c0.5,0.3,1.2,0.2,1.6-0.2L103-24.9z"/>
		<path class="st18" d="M106.5-32.2c-0.3,0-0.7,0.1-0.9,0.4l-1.7,2h2.6c0.4,0,0.7-0.2,0.9-0.5C108.1-31,107.5-32.2,106.5-32.2"/>
		<circle class="st13" cx="106.5" cy="-23.7" r="1.2"/>
		<path class="st19" d="M99.1-31c0-0.7,0.5-1.2,1.2-1.2s1.2,0.5,1.2,1.2c0,0.7-0.5,1.2-1.2,1.2S99.1-30.3,99.1-31L99.1-31z"/>
	</g>
	<g class="st3">
		<rect x="112.1" y="-34.3" class="st20" width="2.4" height="10.6"/>
		<path class="st21" d="M117.7-35.5C117.7-35.5,117.7-35.5,117.7-35.5c0.7,0,1.2,0.5,1.2,1.2c0,0.7-0.5,1.2-1.2,1.2l0,0
			c0.3,0,0.6,0.1,0.8,0.2c0.4,0.2,0.7,0.4,1,0.8c0.1,0.2,0.2,0.4,0.3,0.6c0.1,0.2,0.1,0.4,0.1,0.6c0,0.3-0.1,0.6-0.2,0.8
			c-0.2,0.4-0.4,0.7-0.8,1c-0.2,0.1-0.4,0.2-0.6,0.3c-0.2,0.1-0.4,0.1-0.6,0.1c0.7,0,1.2,0.5,1.2,1.2c0,0.7-0.5,1.2-1.2,1.2l0,0
			c0,0,0,0,0,0c0.6,0,1.2-0.1,1.8-0.4c0.8-0.4,1.5-0.9,2-1.7c0.2-0.4,0.4-0.8,0.6-1.2c0.1-0.4,0.2-0.9,0.2-1.4
			c0-0.6-0.1-1.2-0.4-1.8c-0.4-0.8-0.9-1.5-1.7-2c-0.4-0.2-0.8-0.4-1.2-0.6C118.6-35.4,118.1-35.5,117.7-35.5"/>
		<line class="st22" x1="117.7" y1="-28.7" x2="117.7" y2="-28.7"/>
		<rect x="114.5" y="-28.7" class="st22" width="3.1" height="2.4"/>
		<path class="st23" d="M114.5-28.7h-1.2c-0.7,0-1.2,0.5-1.2,1.2c0,0.7,0.5,1.2,1.2,1.2h1.2V-28.7"/>
		<path class="st24" d="M117.7-28.7L117.7-28.7c-0.7,0-1.2,0.5-1.2,1.2c0,0.7,0.5,1.2,1.2,1.2l0,0c0.7,0,1.2-0.5,1.2-1.2
			C118.9-28.2,118.3-28.7,117.7-28.7"/>
		<path class="st25" d="M113.3-35.5"/>
		<line class="st25" x1="117.7" y1="-35.5" x2="117.7" y2="-35.5"/>
		<polygon class="st25" points="117.7,-35.5 113.3,-35.5 114.5,-33.1 117.7,-33.1 		"/>
		<path class="st26" d="M112.1-34.3c0,0.7,0.5,1.2,1.2,1.2h1.2v-1.2H112.1z"/>
		<path class="st27" d="M117.7-35.5L117.7-35.5c-0.7,0-1.2,0.5-1.2,1.2c0,0.7,0.5,1.2,1.2,1.2l0,0c0.7,0,1.2-0.5,1.2-1.2
			C118.9-35,118.3-35.5,117.7-35.5"/>
		<path class="st28" d="M112.1-34.3c0-0.7,0.5-1.2,1.2-1.2s1.2,0.5,1.2,1.2s-0.5,1.2-1.2,1.2S112.1-33.6,112.1-34.3L112.1-34.3z"/>
		<path class="st29" d="M116.5-34.3c0-0.7,0.5-1.2,1.2-1.2s1.2,0.5,1.2,1.2s-0.5,1.2-1.2,1.2S116.5-33.6,116.5-34.3L116.5-34.3z"/>
		<path class="st30" d="M112.1-23.7c0-0.7,0.5-1.2,1.2-1.2s1.2,0.5,1.2,1.2c0,0.7-0.5,1.2-1.2,1.2S112.1-23,112.1-23.7L112.1-23.7z"
			/>
	</g>
	<g class="st3">
		<rect x="124.5" y="-31.1" class="st13" width="2.4" height="7.4"/>
		<path class="st1" d="M124.5-34.7c0-0.7,0.5-1.2,1.2-1.2s1.2,0.5,1.2,1.2c0,0.7-0.5,1.2-1.2,1.2S124.5-34.1,124.5-34.7L124.5-34.7z
			"/>
		<path class="st7" d="M124.5-23.7c0-0.7,0.5-1.2,1.2-1.2s1.2,0.5,1.2,1.2c0,0.7-0.5,1.2-1.2,1.2S124.5-23,124.5-23.7L124.5-23.7z"
			/>
		<path class="st14" d="M124.5-31.1c0-0.7,0.5-1.2,1.2-1.2s1.2,0.5,1.2,1.2c0,0.7-0.5,1.2-1.2,1.2S124.5-30.4,124.5-31.1L124.5-31.1
			z"/>
	</g>
	<g class="st3">
		<path class="st22" d="M129.3-30.2l2.4,2.9l1.6-1.9l-2.1-2.5L129.3-30.2z M134.9-27.3l-1.6,1.9l2.1,2.5c0.2,0.3,0.6,0.4,0.9,0.4
			c0.3,0,0.5-0.1,0.8-0.3c0.5-0.4,0.6-1.2,0.2-1.7L134.9-27.3"/>
		<path class="st31" d="M135.4-31.8l-2.1,2.5l1.6,1.9l2.4-2.9L135.4-31.8z M131.7-27.3l-2.4,2.9c-0.4,0.5-0.4,1.3,0.2,1.7
			c0.2,0.2,0.5,0.3,0.8,0.3c0.3,0,0.7-0.1,0.9-0.4l2.1-2.5L131.7-27.3"/>
		<polyline class="st32" points="133.3,-29.3 131.7,-27.3 133.3,-25.4 134.9,-27.3 133.3,-29.3 		"/>
		<path class="st33" d="M129-31c0-0.7,0.5-1.2,1.2-1.2s1.2,0.5,1.2,1.2c0,0.7-0.5,1.2-1.2,1.2S129-30.3,129-31L129-31z"/>
		<path class="st34" d="M135.1-23.7c0-0.7,0.5-1.2,1.2-1.2s1.2,0.5,1.2,1.2c0,0.7-0.5,1.2-1.2,1.2S135.1-23,135.1-23.7L135.1-23.7z"
			/>
		<path class="st29" d="M135.1-31c0-0.7,0.5-1.2,1.2-1.2s1.2,0.5,1.2,1.2c0,0.7-0.5,1.2-1.2,1.2S135.1-30.3,135.1-31L135.1-31z"/>
		<path class="st35" d="M129-23.7c0-0.7,0.5-1.2,1.2-1.2s1.2,0.5,1.2,1.2c0,0.7-0.5,1.2-1.2,1.2S129-23,129-23.7L129-23.7z"/>
	</g>
</g>
<g class="st2">
	<path class="st3" d="M15.6,10.9h0.5l-5.9,8.9l-2.4-3.5l-2.3,3.5l-6-8.9h1.8l4.8,7.2l1.4-2.1l-3.4-5h0.6l3.1,4.6l3.1-4.6h0.5l-3.4,5
		l2.1,3.1L15.6,10.9z"/>
	<path class="st3" d="M17.1,19.5v-8.6h0.5v8.6H17.1z"/>
	<path class="st3" d="M18.8,19.5l7.8-8.2h-7.5v-0.4H29l-7.8,8.2h7.7v0.4H18.8z"/>
	<path class="st3" d="M34.4,19.5v-8.6h5.4c2.2,0,3.7,1.2,3.7,3.1s-1.5,3.1-3.7,3.1H36v2.4H34.4z M39.8,16.7c1.9,0,3.2-1.1,3.2-2.7
		c0-1.6-1.3-2.7-3.2-2.7H36v5.4H39.8z"/>
	<path class="st3" d="M44.6,19.5v-8.6H45v8.6H44.6z"/>
	<path class="st3" d="M55.1,19.5l-4.2-4.1l-4.2,4.1h-0.6l4.4-4.4l-4.3-4.2h0.6l4.1,4l4.1-4h0.6l-4.3,4.3l4.4,4.3H55.1z"/>
</g>
<rect x="18.5" class="st13" width="2.3" height="2"/>
<rect x="54.2" class="st13" width="2.3" height="2.1"/>
<polygon class="st36" points="2.3,0.9 0,0.9 0.7,4.8 3.4,6.8 "/>
<polygon class="st37" points="31.9,11.2 27.6,11.2 25.8,13.5 31.9,13.5 "/>
<polygon class="st0" points="43,8.1 43,10.4 45.6,10.4 48.5,8.1 "/>
<polygon class="st36" points="42.1,13.5 39.8,6.7 39.8,13.5 "/>
<polygon class="st36" points="70,13.5 66.9,13.5 65.5,12.1 68.7,12.1 "/>
<g>
</g>
<g>
</g>
<g>
</g>
<g>
</g>
<g>
</g>
<g>
</g>
<g>
</g>
<g>
</g>
<g>
</g>
<g>
</g>
<g>
</g>
<g>
</g>
<g>
</g>
<g>
</g>
<g>
</g>
</svg>
