<?xml version="1.0" encoding="utf-8"?>
<!-- Generator: Adobe Illustrator 25.3.0, SVG Export Plug-In . SVG Version: 6.00 Build 0)  -->
<svg version="1.1" id="Calque_1" xmlns="http://www.w3.org/2000/svg" xmlns:xlink="http://www.w3.org/1999/xlink" x="0px" y="0px"
	 viewBox="0 0 56.2 8.9" style="enable-background:new 0 0 56.2 8.9;" xml:space="preserve">
<style type="text/css">
	.st0{fill:#3D3082;}
	.st1{fill:#FFF000;}
	.st2{fill:#3F3633;}
	.st3{fill:#009C57;}
	.st4{fill:#1B8F2D;}
	.st5{fill:#E8410A;}
	.st6{fill:#523D2A;}
	.st7{fill:#3CA4DD;}
	.st8{fill:#FFEF00;}
	.st9{fill:#F49200;}
	.st10{fill:#E82F81;}
	.st11{fill:#F9C7C1;}
	.st12{fill:#A2C72D;}
	.st13{fill:#A5D8D6;}
	.st14{fill:#5CB239;}
	.st15{fill:#AB801F;}
	.st16{fill:#9E1779;}
	.st17{fill:#EF4223;}
	.st18{fill:#34A3DC;}
	.st19{fill:#99CA46;}
	.st20{fill:#9E4334;}
	.st21{fill:#26974F;}
	.st22{fill:#FABFB7;}
	.st23{fill:#C51A1E;}
	.st24{fill:#5C81A7;}
	.st25{fill:#FFF32A;}
	.st26{fill:#EE3D8A;}
	.st27{fill:#9C2584;}
	.st28{fill:#9B2584;}
	.st29{fill:#5A3438;}
	.st30{fill:#00A361;}
	.st31{fill:#3B398C;}
	.st32{fill:#1ABECB;}
	.st33{fill:#1D1D1B;}
</style>
<g>
	<g>
		<path class="st0" d="M34.8-6.9L32-14.6l-2.3,0.8l3.8,10.6L34.8-6.9z M33.6-3.1C33.6-3.1,33.6-3.1,33.6-3.1
			C33.6-3.1,33.6-3.1,33.6-3.1 M33.6-3.1c0.1,0.2,0.1,0.3,0.2,0.4C33.7-2.9,33.6-3,33.6-3.1 M33.8-2.7C33.8-2.7,33.8-2.7,33.8-2.7
			C33.8-2.7,33.8-2.7,33.8-2.7 M35.5-2.7C35.5-2.7,35.5-2.7,35.5-2.7C35.5-2.7,35.5-2.7,35.5-2.7 M35.5-2.7
			c-0.1,0.1-0.2,0.2-0.4,0.2C35.3-2.5,35.4-2.6,35.5-2.7 M35.1-2.4C35.1-2.4,35.1-2.4,35.1-2.4C35.1-2.4,35.1-2.4,35.1-2.4
			 M35.1-2.4C35.1-2.4,35.1-2.4,35.1-2.4C35.1-2.4,35.1-2.4,35.1-2.4 M35.1-2.4C35.1-2.4,35.1-2.4,35.1-2.4
			C35.1-2.4,35.1-2.4,35.1-2.4 M35-2.4c-0.1,0-0.2,0-0.3,0c0,0,0,0,0,0c0,0,0,0,0,0C34.8-2.4,34.9-2.4,35-2.4 M34.7-2.4
			C34.7-2.4,34.7-2.4,34.7-2.4C34.7-2.4,34.7-2.4,34.7-2.4"/>
		<polygon class="st1" points="35.8,-3.1 39.2,-10.9 38.2,-14.6 34.8,-6.9 		"/>
		<path class="st2" d="M34.8-6.9l-1.2,2.8c-0.1,0.3-0.1,0.6,0,0.9l0,0c0,0,0,0,0,0c0,0,0,0,0,0c0,0,0,0,0,0c0.1,0.1,0.1,0.3,0.2,0.4
			c0,0,0,0,0,0c0,0,0,0,0,0c0.2,0.2,0.5,0.4,0.9,0.4c0,0,0,0,0,0c0,0,0,0,0,0c0,0,0,0,0,0c0.1,0,0.2,0,0.3,0c0,0,0,0,0,0
			c0,0,0,0,0,0c0,0,0,0,0,0c0,0,0,0,0,0c0,0,0,0,0.1,0c0,0,0,0,0,0c0,0,0,0,0,0c0,0,0,0,0,0c0.1-0.1,0.3-0.1,0.4-0.2c0,0,0,0,0,0
			c0,0,0,0,0,0C35.9-3,36-3.5,35.8-4L34.8-6.9"/>
		<path class="st3" d="M40.5-14.6l-1.3,3.7L42-3.2c-0.1-0.3-0.1-0.6,0-0.8l1.2-3.1L40.5-14.6"/>
		<path class="st4" d="M39.3-15.4c-0.1,0-0.3,0-0.4,0.1c0,0,0,0,0,0c0,0,0,0,0,0c0,0,0,0,0,0c-0.2,0.1-0.3,0.1-0.4,0.3
			c-0.1,0.1-0.2,0.2-0.3,0.4c0,0,0,0,0,0l0,0c-0.1,0.3-0.1,0.6,0,0.9l1,2.9l1.2-2.8c0.1-0.3,0.1-0.6,0-0.9l0,0c0,0,0,0,0,0
			c0,0,0,0,0,0c0,0,0,0,0,0c-0.1-0.1-0.1-0.3-0.2-0.4C40-15.2,39.7-15.4,39.3-15.4C39.4-15.4,39.4-15.4,39.3-15.4
			C39.3-15.4,39.3-15.4,39.3-15.4C39.3-15.4,39.3-15.4,39.3-15.4"/>
		<path class="st3" d="M44.3-3.1L44.3-3.1C44.3-3.1,44.2-3.1,44.3-3.1C44.3-3.1,44.3-3.1,44.3-3.1 M42-3.1c0.1,0.2,0.2,0.3,0.3,0.4
			C42.1-2.8,42-3,42-3.1 M42.3-2.7C42.3-2.7,42.3-2.7,42.3-2.7C42.3-2.7,42.3-2.7,42.3-2.7 M44-2.7C44-2.7,44-2.7,44-2.7
			C44-2.7,44-2.7,44-2.7 M44-2.7c-0.1,0.1-0.3,0.2-0.4,0.3C43.7-2.5,43.9-2.6,44-2.7 M42.7-2.4L42.7-2.4 M42.7-2.4
			c0.1,0,0.2,0.1,0.2,0.1C42.8-2.4,42.8-2.4,42.7-2.4C42.7-2.4,42.7-2.4,42.7-2.4 M43.6-2.4C43.6-2.4,43.6-2.4,43.6-2.4
			C43.6-2.4,43.6-2.4,43.6-2.4 M43.4-2.4C43.4-2.4,43.4-2.4,43.4-2.4L43.4-2.4 M43.4-2.4C43.4-2.4,43.4-2.4,43.4-2.4
			C43.4-2.4,43.4-2.4,43.4-2.4 M43.4-2.4c-0.1,0-0.2,0-0.3,0c0,0,0,0-0.1,0c0,0,0,0,0.1,0C43.2-2.4,43.3-2.4,43.4-2.4 M42.9-2.4
			C42.9-2.4,42.9-2.4,42.9-2.4C42.9-2.4,42.9-2.4,42.9-2.4 M42.9-2.4C42.9-2.4,42.9-2.4,42.9-2.4C42.9-2.4,42.9-2.4,42.9-2.4
			 M42.9-2.4C42.9-2.4,42.9-2.4,42.9-2.4C42.9-2.4,42.9-2.4,42.9-2.4 M43-2.4C43-2.4,43-2.4,43-2.4C43-2.4,43-2.4,43-2.4 M43.1-2.4
			C43.1-2.4,43.1-2.4,43.1-2.4C43.1-2.4,43.1-2.4,43.1-2.4 M43.1-2.4C43.1-2.4,43.1-2.4,43.1-2.4C43.1-2.4,43.1-2.4,43.1-2.4"/>
		<path class="st5" d="M44.3-3.1l4-10.6L46-14.6l-2.8,7.5L44.3-3.1z M42-3.2C42-3.2,42-3.1,42-3.2C42-3.1,42-3.2,42-3.2L42-3.2
			 M44.2-3.1c-0.1,0.1-0.1,0.3-0.3,0.4C44.1-2.8,44.2-2.9,44.2-3.1 M42.3-2.7C42.3-2.7,42.3-2.7,42.3-2.7
			C42.3-2.7,42.3-2.7,42.3-2.7 M42.3-2.7c0.1,0.1,0.2,0.2,0.4,0.3C42.5-2.5,42.4-2.6,42.3-2.7 M44-2.7C44-2.7,44-2.7,44-2.7
			C44-2.7,44-2.7,44-2.7 M42.7-2.4C42.7-2.4,42.7-2.4,42.7-2.4C42.7-2.4,42.7-2.4,42.7-2.4 M43.6-2.4C43.6-2.4,43.6-2.4,43.6-2.4
			C43.6-2.4,43.6-2.4,43.6-2.4 M43.6-2.4C43.5-2.4,43.5-2.4,43.6-2.4c-0.1,0-0.1,0-0.1,0C43.5-2.4,43.5-2.4,43.6-2.4 M43.4-2.4
			C43.4-2.4,43.4-2.4,43.4-2.4C43.4-2.4,43.4-2.4,43.4-2.4 M43.4-2.4C43.4-2.4,43.4-2.4,43.4-2.4C43.4-2.4,43.4-2.4,43.4-2.4
			 M42.9-2.4C42.9-2.4,42.9-2.4,42.9-2.4C42.9-2.4,42.9-2.4,42.9-2.4 M42.9-2.4C42.9-2.4,42.9-2.4,42.9-2.4
			C42.9-2.4,42.9-2.4,42.9-2.4 M42.9-2.4C42.9-2.4,42.9-2.4,42.9-2.4C42.9-2.4,42.9-2.4,42.9-2.4 M42.9-2.4c0,0,0.1,0,0.1,0
			C43-2.4,43-2.4,42.9-2.4 M43-2.4C43.1-2.4,43.1-2.4,43-2.4C43.1-2.4,43.1-2.4,43-2.4 M43.1-2.4C43.1-2.4,43.1-2.4,43.1-2.4
			C43.1-2.4,43.1-2.4,43.1-2.4 M43.1-2.4C43.1-2.4,43.1-2.4,43.1-2.4C43.1-2.4,43.1-2.4,43.1-2.4"/>
		<path class="st6" d="M43.2-7.1L42-4c-0.1,0.3-0.1,0.6,0,0.8l0,0c0,0,0,0,0,0C42-3,42.1-2.8,42.3-2.7c0,0,0,0,0,0c0,0,0,0,0,0
			c0.1,0.1,0.2,0.2,0.4,0.3l0,0c0,0,0,0,0,0c0,0,0,0,0,0c0.1,0,0.1,0,0.2,0.1c0,0,0,0,0,0c0,0,0,0,0,0c0,0,0,0,0,0c0,0,0,0,0,0
			c0,0,0,0,0,0c0,0,0,0,0,0c0,0,0.1,0,0.1,0c0,0,0,0,0,0c0,0,0,0,0,0c0,0,0,0,0,0c0,0,0,0,0,0c0,0,0,0,0,0c0,0,0,0,0,0
			c0,0,0,0,0.1,0c0.1,0,0.2,0,0.3,0c0,0,0,0,0,0c0,0,0,0,0,0c0,0,0,0,0,0c0,0,0,0,0,0c0,0,0.1,0,0.1,0c0,0,0,0,0,0c0,0,0,0,0,0
			c0,0,0,0,0,0c0.2-0.1,0.3-0.2,0.4-0.3c0,0,0,0,0,0c0,0,0,0,0,0c0.1-0.1,0.2-0.2,0.3-0.4c0,0,0,0,0,0l0,0c0.1-0.3,0.1-0.6,0-0.8
			L43.2-7.1"/>
		<circle class="st7" cx="30.9" cy="-14.2" r="1.2"/>
		<circle class="st8" cx="47.1" cy="-14.2" r="1.2"/>
		<path class="st9" d="M38.1-14.2c0-0.7,0.5-1.2,1.2-1.2c0.7,0,1.2,0.5,1.2,1.2c0,0.7-0.5,1.2-1.2,1.2
			C38.6-12.9,38.1-13.5,38.1-14.2L38.1-14.2z"/>
	</g>
	<g>
		<rect x="50" y="-10.9" class="st10" width="2.4" height="7.4"/>
		<path class="st9" d="M50-14.6c0-0.7,0.5-1.2,1.2-1.2c0.7,0,1.2,0.5,1.2,1.2c0,0.7-0.5,1.2-1.2,1.2S50-13.9,50-14.6L50-14.6z"/>
		<circle class="st3" cx="51.2" cy="-3.6" r="1.2"/>
		<path class="st11" d="M50-10.9c0-0.7,0.5-1.2,1.2-1.2c0.7,0,1.2,0.5,1.2,1.2c0,0.7-0.5,1.2-1.2,1.2S50-10.2,50-10.9L50-10.9z"/>
	</g>
	<g>
		<polygon class="st12" points="61.8,-4.8 58.3,-4.8 55.7,-2.4 61.8,-2.4 		"/>
		<path class="st9" d="M55.7-9.7h3.5l2.6-2.4h-6.1V-9.7z M61.8-12.1C61.8-12.1,61.8-12.1,61.8-12.1"/>
		<polygon class="st13" points="58.3,-4.8 62.8,-10.1 59.2,-9.7 54.8,-4.4 		"/>
		<path class="st14" d="M58.3-4.8h-2.6c-1.2,0-1.7,1.6-0.6,2.2c0.5,0.3,1.2,0.2,1.6-0.2L58.3-4.8z"/>
		<path class="st15" d="M61.8-12.1c-0.3,0-0.7,0.1-0.9,0.4l-1.7,2h2.6c0.4,0,0.7-0.2,0.9-0.5C63.4-10.9,62.9-12.1,61.8-12.1"/>
		<path class="st10" d="M60.6-3.6c0-0.7,0.5-1.2,1.2-1.2c0.7,0,1.2,0.5,1.2,1.2s-0.5,1.2-1.2,1.2C61.2-2.4,60.6-2.9,60.6-3.6
			L60.6-3.6z"/>
		<path class="st16" d="M54.5-10.9c0-0.7,0.5-1.2,1.2-1.2c0.7,0,1.2,0.5,1.2,1.2c0,0.7-0.5,1.2-1.2,1.2C55-9.7,54.5-10.2,54.5-10.9
			L54.5-10.9z"/>
	</g>
	<g>
		<rect x="64.9" y="-14.2" class="st17" width="2.4" height="10.6"/>
		<path class="st18" d="M70.5-15.4C70.5-15.4,70.5-15.4,70.5-15.4c0.7,0,1.2,0.5,1.2,1.2c0,0.7-0.5,1.2-1.2,1.2l0,0
			c0.3,0,0.6,0.1,0.8,0.2c0.4,0.2,0.7,0.4,1,0.8c0.1,0.2,0.2,0.4,0.3,0.6c0.1,0.2,0.1,0.4,0.1,0.6c0,0.3-0.1,0.6-0.2,0.8
			c-0.2,0.4-0.4,0.7-0.8,1c-0.2,0.1-0.4,0.2-0.6,0.3c-0.2,0.1-0.4,0.1-0.6,0.1c0.7,0,1.2,0.5,1.2,1.2c0,0.7-0.5,1.2-1.2,1.2l0,0
			c0,0,0,0,0,0c0.6,0,1.2-0.1,1.8-0.4c0.8-0.4,1.5-0.9,2-1.7c0.2-0.4,0.4-0.8,0.6-1.2c0.1-0.4,0.2-0.9,0.2-1.4
			c0-0.6-0.1-1.2-0.4-1.8c-0.4-0.8-0.9-1.5-1.7-2c-0.4-0.2-0.8-0.4-1.2-0.6C71.4-15.3,71-15.4,70.5-15.4"/>
		<line class="st19" x1="70.5" y1="-8.6" x2="70.5" y2="-8.6"/>
		<rect x="67.4" y="-8.6" class="st19" width="3.1" height="2.4"/>
		<path class="st20" d="M67.4-8.6h-1.2c-0.7,0-1.2,0.5-1.2,1.2c0,0.7,0.5,1.2,1.2,1.2h1.2V-8.6"/>
		<path class="st21" d="M70.5-8.6L70.5-8.6c-0.7,0-1.2,0.5-1.2,1.2c0,0.7,0.5,1.2,1.2,1.2l0,0c0.7,0,1.2-0.5,1.2-1.2
			C71.7-8,71.2-8.6,70.5-8.6"/>
		<path class="st22" d="M66.1-15.4"/>
		<line class="st22" x1="70.5" y1="-15.4" x2="70.5" y2="-15.4"/>
		<polygon class="st22" points="70.5,-15.4 66.1,-15.4 67.4,-12.9 70.5,-12.9 		"/>
		<path class="st23" d="M64.9-14.2c0,0.7,0.5,1.2,1.2,1.2h1.2v-1.2H64.9z"/>
		<path class="st24" d="M70.5-15.4L70.5-15.4c-0.7,0-1.2,0.5-1.2,1.2c0,0.7,0.5,1.2,1.2,1.2l0,0c0.7,0,1.2-0.5,1.2-1.2
			C71.7-14.8,71.2-15.4,70.5-15.4"/>
		<path class="st25" d="M64.9-14.2c0-0.7,0.5-1.2,1.2-1.2c0.7,0,1.2,0.5,1.2,1.2c0,0.7-0.5,1.2-1.2,1.2
			C65.5-12.9,64.9-13.5,64.9-14.2L64.9-14.2z"/>
		<path class="st26" d="M69.3-14.2c0-0.7,0.5-1.2,1.2-1.2s1.2,0.5,1.2,1.2c0,0.7-0.5,1.2-1.2,1.2S69.3-13.5,69.3-14.2L69.3-14.2z"/>
		<circle class="st27" cx="66.1" cy="-3.6" r="1.2"/>
	</g>
	<g>
		<rect x="77.3" y="-10.9" class="st10" width="2.4" height="7.4"/>
		<path class="st9" d="M77.3-14.6c0-0.7,0.5-1.2,1.2-1.2c0.7,0,1.2,0.5,1.2,1.2c0,0.7-0.5,1.2-1.2,1.2S77.3-13.9,77.3-14.6
			L77.3-14.6z"/>
		<circle class="st3" cx="78.5" cy="-3.6" r="1.2"/>
		<path class="st11" d="M77.3-10.9c0-0.7,0.5-1.2,1.2-1.2c0.7,0,1.2,0.5,1.2,1.2c0,0.7-0.5,1.2-1.2,1.2S77.3-10.2,77.3-10.9
			L77.3-10.9z"/>
	</g>
	<g>
		<path class="st19" d="M82.1-10.1l2.4,2.9l1.6-1.9L84-11.6L82.1-10.1z M87.7-7.2l-1.6,1.9l2.1,2.5c0.2,0.3,0.6,0.4,0.9,0.4
			c0.3,0,0.5-0.1,0.8-0.3c0.5-0.4,0.6-1.2,0.2-1.7L87.7-7.2"/>
		<path class="st28" d="M88.2-11.6l-2.1,2.5l1.6,1.9l2.4-2.9L88.2-11.6z M84.5-7.2l-2.4,2.9c-0.4,0.5-0.4,1.3,0.2,1.7
			c0.2,0.2,0.5,0.3,0.8,0.3c0.3,0,0.7-0.1,0.9-0.4l2.1-2.5L84.5-7.2"/>
		<polyline class="st29" points="86.1,-9.1 84.5,-7.2 86.1,-5.3 87.7,-7.2 86.1,-9.1 		"/>
		<path class="st30" d="M81.8-10.9c0-0.7,0.5-1.2,1.2-1.2c0.7,0,1.2,0.5,1.2,1.2c0,0.7-0.5,1.2-1.2,1.2
			C82.4-9.7,81.8-10.2,81.8-10.9L81.8-10.9z"/>
		<circle class="st31" cx="89.1" cy="-3.6" r="1.2"/>
		<path class="st26" d="M87.9-10.9c0-0.7,0.5-1.2,1.2-1.2s1.2,0.5,1.2,1.2c0,0.7-0.5,1.2-1.2,1.2S87.9-10.2,87.9-10.9L87.9-10.9z"/>
		<path class="st32" d="M81.8-3.6c0-0.7,0.5-1.2,1.2-1.2c0.7,0,1.2,0.5,1.2,1.2c0,0.7-0.5,1.2-1.2,1.2C82.4-2.4,81.8-2.9,81.8-3.6
			L81.8-3.6z"/>
	</g>
</g>
<path class="st10" d="M2.8,17.2v7.1c0,0,0,0.1,0,0.2s0,0.2,0.1,0.2C3,25,3.1,25.3,3.4,25.5c0.2,0.2,0.5,0.3,0.9,0.3h3.3
	c0.1,0,0.3,0,0.4-0.1c0.2-0.1,0.3-0.1,0.4-0.2c0.1-0.1,0.2-0.2,0.3-0.3C8.9,25.2,8.9,25,9,24.9c0-0.1,0-0.1,0.1-0.2
	c0-0.1,0-0.2,0-0.2v-7.3h2.4v7.5c0,0,0,0.1,0,0.2c0,0.1,0,0.2,0,0.2c-0.1,0.8-0.5,1.4-1,2c-0.5,0.5-1.2,0.9-1.9,1.1
	c-0.1,0-0.2,0-0.4,0.1c-0.2,0-0.3,0.1-0.4,0.1H4c-0.1,0-0.2,0-0.4-0.1c-0.2,0-0.3-0.1-0.4-0.1c-0.7-0.2-1.3-0.6-1.7-1.1
	c-0.4-0.5-0.8-1.1-1-1.8c0-0.1-0.1-0.3-0.1-0.4c0-0.1,0-0.3,0-0.4v-7.3H2.8z M7.1,17.2v8.2H4.8v-8.2H7.1z"/>
<path class="st14" d="M2.8,17.2v7.1c0,0,0,0.1,0,0.2s0,0.2,0.1,0.2C3,25,3.1,25.3,3.4,25.5c0.2,0.2,0.5,0.3,0.9,0.3h3.3
	c0.1,0,0.3,0,0.4-0.1c0.2-0.1,0.3-0.1,0.4-0.2c0.1-0.1,0.2-0.2,0.3-0.3C8.9,25.2,8.9,25,9,24.9c0-0.1,0-0.1,0.1-0.2
	c0-0.1,0-0.2,0-0.2v-7.3h2.4v7.5c0,0,0,0.1,0,0.2c0,0.1,0,0.2,0,0.2c-0.1,0.8-0.5,1.4-1,2c-0.5,0.5-1.2,0.9-1.9,1.1
	c-0.1,0-0.2,0-0.4,0.1c-0.2,0-0.3,0.1-0.4,0.1H4c-0.1,0-0.2,0-0.4-0.1c-0.2,0-0.3-0.1-0.4-0.1c-0.7-0.2-1.3-0.6-1.7-1.1
	c-0.4-0.5-0.8-1.1-1-1.8c0-0.1-0.1-0.3-0.1-0.4c0-0.1,0-0.3,0-0.4v-7.3H2.8z"/>
<path class="st1" d="M12.1,17.5c0.2-0.2,0.5-0.4,0.8-0.4s0.6,0.1,0.8,0.4c0.2,0.2,0.3,0.5,0.3,0.8c0,0.3-0.1,0.6-0.3,0.9
	c-0.2,0.2-0.5,0.3-0.9,0.3c-0.3,0-0.6-0.1-0.8-0.3c-0.2-0.2-0.3-0.5-0.3-0.9C11.8,18.1,11.9,17.8,12.1,17.5z M14.1,20.1v8.2h-2.4
	v-8.2H14.1z"/>
<path class="st5" d="M12.1,17.5c0.2-0.2,0.5-0.4,0.8-0.4s0.6,0.1,0.8,0.4c0.2,0.2,0.3,0.5,0.3,0.8c0,0.3-0.1,0.6-0.3,0.9
	c-0.2,0.2-0.5,0.3-0.9,0.3c-0.3,0-0.6-0.1-0.8-0.3c-0.2-0.2-0.3-0.5-0.3-0.9C11.8,18.1,11.9,17.8,12.1,17.5z M11.8,20.6v-0.5
	 M11.8,27.6v-7 M14.1,24.6v3.7h-2.4v-0.7 M11.8,20.1h2.4v4.5"/>
<path class="st0" d="M38.5,17.2c0.2,0,0.4,0,0.7,0.1c0.2,0.1,0.5,0.1,0.7,0.2c0.8,0.3,1.5,0.8,1.9,1.5c0.4,0.7,0.6,1.4,0.6,2.3
	c0,0.9-0.2,1.7-0.7,2.4c-0.5,0.7-1.2,1.1-2.1,1.4c-0.2,0-0.3,0.1-0.5,0.1c-0.2,0-0.3,0.1-0.5,0.1h-4.4V23h4.2c0,0,0.1,0,0.2,0
	c0.1,0,0.2,0,0.3-0.1c0.4-0.1,0.7-0.3,0.8-0.6c0.2-0.3,0.3-0.6,0.3-1c0-0.4-0.1-0.8-0.3-1c-0.2-0.3-0.5-0.5-0.9-0.6c0,0,0,0-0.1,0
	c-0.1,0-0.1,0-0.1,0c0,0-0.1,0-0.1,0c0,0-0.1,0-0.1,0h-4.7v8.7h-2.4V17.2H38.5z"/>
<path class="st9" d="M33.4,17.2h5.1c0.2,0,0.4,0,0.7,0.1c0.2,0.1,0.5,0.1,0.7,0.2c0.8,0.3,1.5,0.8,1.9,1.5c0.4,0.7,0.6,1.4,0.6,2.3
	c0,0.9-0.2,1.7-0.7,2.4c-0.5,0.7-1.2,1.1-2.1,1.4c-0.2,0-0.3,0.1-0.5,0.1c-0.2,0-0.3,0.1-0.5,0.1h-4.4V23h4.2c0,0,0.1,0,0.2,0
	c0.1,0,0.2,0,0.3-0.1c0.4-0.1,0.7-0.3,0.8-0.6c0.2-0.3,0.3-0.6,0.3-1c0-0.4-0.1-0.8-0.3-1c-0.2-0.3-0.5-0.5-0.9-0.6c0,0,0,0-0.1,0
	c-0.1,0-0.1,0-0.1,0c0,0-0.1,0-0.1,0c0,0-0.1,0-0.1,0H37 M31.2,18.7v-1.5h2.1 M31.2,27.4v-8.7 M33.6,21.1v7.2h-2.4v-0.9"/>
<path class="st17" d="M42.9,17.5c0.2-0.2,0.5-0.4,0.8-0.4s0.6,0.1,0.8,0.4c0.2,0.2,0.3,0.5,0.3,0.8c0,0.3-0.1,0.6-0.3,0.9
	c-0.2,0.2-0.5,0.3-0.9,0.3c-0.3,0-0.6-0.1-0.8-0.3c-0.2-0.2-0.3-0.5-0.3-0.9C42.6,18.1,42.7,17.8,42.9,17.5z M45,20.1v8.2h-2.4v-8.2
	H45z"/>
<path class="st18" d="M44.4,19.4c-0.2,0.1-0.4,0.1-0.6,0.1c-0.3,0-0.6-0.1-0.8-0.3c-0.2-0.2-0.3-0.5-0.3-0.9c0-0.3,0.1-0.6,0.3-0.8
	c0.1-0.1,0.2-0.1,0.2-0.2 M44.4,17.3c0.1,0.1,0.2,0.1,0.3,0.2c0.2,0.2,0.3,0.5,0.3,0.8c0,0.3-0.1,0.6-0.3,0.9
	c-0.1,0.1-0.2,0.1-0.3,0.2 M43.2,17.4c0.2-0.1,0.4-0.2,0.6-0.2c0.2,0,0.4,0,0.6,0.1 M42.6,22.2v-2.1h0.2 M45,22.6v5.6h-2.4v-6.1
	 M42.8,20.1H45v2.6"/>
<path class="st10" d="M48.4,23.4l1.7,1.7L47,28.3h-0.1l-1.7-1.7L48.4,23.4z M46.6,19.2L46.6,19.2c0.1,0,0.1,0,0.1,0l10.6,7.1l-1.3,2
	c0,0,0,0,0,0h0h0c0,0,0,0-0.1,0l-10.6-7.1L46.6,19.2z M55.7,19.1l1.7,1.7l-3.1,3.1h-0.1l-1.7-1.7L55.7,19.1z"/>
<path class="st0" d="M48,27.3l-1,1h-0.1l-1-1 M46.4,25.4l2-2l1.7,1.7L48,27.3 M45.9,27.3l-0.7-0.7l1.1-1.1 M52.7,26L46.6,22
	 M51.6,22.4l5.7,3.8l-1.3,2c0,0,0,0,0,0h0h0c0,0,0,0-0.1,0L52.7,26 M46.6,22l-1.3-0.9l1.3-1.9l0.1-0.1c0,0,0,0,0.1,0l4.9,3.3
	 M53.9,20.9l1.8-1.8l0.5,0.5 M55.7,22.4l-1.5,1.5h-0.1l-1.7-1.7l1.4-1.4 M56.1,19.6l1.2,1.2l-1.6,1.6"/>
<polygon class="st0" points="31,20.1 17.2,20.1 17.2,22.5 23,22.5 27.4,22.5 "/>
<rect x="28.2" y="25.9" class="st1" width="0" height="2.4"/>
<polygon class="st1" points="14.4,28.3 28.2,28.3 28.2,25.9 18,25.9 "/>
<polygon class="st33" points="23,22.5 18,25.9 28.2,25.9 28.2,25.9 22.4,25.9 27.4,22.5 "/>
<g>
	<path class="st17" d="M16.1,0h0.5l-5.9,8.9L8.3,5.4L6,8.9L0,0h1.8l4.8,7.2L8.1,5L4.7,0h0.6l3.1,4.6L11.4,0H12L8.6,5l2.1,3.1L16.1,0
		z"/>
	<path class="st17" d="M17.6,8.6V0h0.5v8.6H17.6z"/>
	<path class="st17" d="M19.3,8.6l7.8-8.2h-7.5V0h9.9l-7.8,8.2h7.7v0.4H19.3z"/>
	<path class="st17" d="M34.8,8.6V0h5.4c2.2,0,3.7,1.2,3.7,3.1s-1.5,3.1-3.7,3.1h-3.7v2.4H34.8z M40.2,5.8c1.9,0,3.2-1.1,3.2-2.7
		c0-1.6-1.3-2.7-3.2-2.7h-3.7v5.4H40.2z"/>
	<path class="st17" d="M45,8.6V0h0.5v8.6H45z"/>
	<path class="st9" d="M55.6,8.6l-4.2-4.1l-4.2,4.1h-0.6l4.4-4.4L46.8,0h0.6l4.1,4l4.1-4h0.6l-4.3,4.3l4.4,4.3H55.6z"/>
</g>
<g>
	<path class="st33" d="M16.1,0h0.5l-5.9,8.9L8.3,5.4L6,8.9L0,0h1.8l4.8,7.2L8.1,5L4.7,0h0.6l3.1,4.6L11.4,0H12L8.6,5l2.1,3.1L16.1,0
		z"/>
	<path class="st10" d="M17.6,8.6V0h0.5v8.6H17.6z"/>
	<path class="st33" d="M19.3,8.6l7.8-8.2h-7.5V0h9.9l-7.8,8.2h7.7v0.4H19.3z"/>
	<path class="st33" d="M34.8,8.6V0h5.4c2.2,0,3.7,1.2,3.7,3.1s-1.5,3.1-3.7,3.1h-3.7v2.4H34.8z M40.2,5.8c1.9,0,3.2-1.1,3.2-2.7
		c0-1.6-1.3-2.7-3.2-2.7h-3.7v5.4H40.2z"/>
	<path class="st10" d="M45,8.6V0h0.5v8.6H45z"/>
	<path class="st9" d="M55.6,8.6l-4.2-4.1l-4.2,4.1h-0.6l4.4-4.4L46.8,0h0.6l4.1,4l4.1-4h0.6l-4.3,4.3l4.4,4.3H55.6z"/>
</g>
<polygon class="st0" points="27.1,0.4 29,0.4 21.7,8.2 19.7,8.2 "/>
<polygon class="st3" points="0,0 1.8,0 6.6,7.2 5.8,8.5 "/>
<rect x="34.8" y="0" class="st3" width="1.7" height="8.6"/>
<polygon class="st18" points="16.6,0 10.7,8.9 10.7,8.1 16.1,0 "/>
</svg>
