<?xml version="1.0" encoding="utf-8"?>
<!-- Generator: Adobe Illustrator 25.3.0, SVG Export Plug-In . SVG Version: 6.00 Build 0)  -->
<svg version="1.1" id="Calque_1" xmlns="http://www.w3.org/2000/svg" xmlns:xlink="http://www.w3.org/1999/xlink" x="0px" y="0px"
	 viewBox="0 0 260.9 66.5" style="enable-background:new 0 0 260.9 66.5;" xml:space="preserve">
<style type="text/css">
	.Ombre_x0020_portée{fill:none;}
	.Lueur_x0020_externe_x0020_5 pt{fill:none;}
	.Néon_x0020_bleu{fill:none;stroke:#89ACDA;stroke-width:7;stroke-linecap:round;stroke-linejoin:round;}
	.Ton_x0020_clair_x0020_chrome{fill:url(#SVGID_1_);stroke:#FFFFFF;stroke-width:0.3629;stroke-miterlimit:1;}
	.Swing_GS{fill:#FFDD06;}
	.Alysse_GS{fill:#A7D0E4;}
	.st0{fill:#52A3DB;}
</style>
<linearGradient id="SVGID_1_" gradientUnits="userSpaceOnUse" x1="-32" y1="-15.3481" x2="-32" y2="-16.3481">
	<stop  offset="0" style="stop-color:#666665"/>
	<stop  offset="0.618" style="stop-color:#1B1B1B"/>
	<stop  offset="0.6292" style="stop-color:#555454"/>
	<stop  offset="0.9831" style="stop-color:#3E3E3E"/>
</linearGradient>
<g>
	<path d="M90,51L76,9h6.2L95,47.8h-3.1L105.3,9h5.5l13.1,38.8h-3L134,9h5.7l-14,42h-6.3l-12.2-35.9h1.6L96.4,51H90z"/>
	<path class="st0" d="M148.1,20.2c-0.7,0-1.3-0.2-1.8-0.7c-0.5-0.5-0.7-1.1-0.7-1.7c0-0.7,0.2-1.2,0.7-1.7c0.5-0.5,1.1-0.7,1.8-0.7
		c0.7,0,1.3,0.2,1.8,0.7c0.5,0.4,0.7,1,0.7,1.7c0,0.7-0.2,1.3-0.7,1.8C149.4,20,148.8,20.2,148.1,20.2z M146.4,51V25.8h3.4V51H146.4
		z"/>
	<path d="M156.5,51v-2.3l16.8-21.3l0.7,1.2h-17.2v-2.8h19.9V28L160,49.3l-0.9-1.2h18V51H156.5z"/>
	<path d="M185.3,51V9h16.4c3.7,0,6.8,0.6,9.4,1.7c2.6,1.2,4.6,2.8,6,5c1.4,2.2,2.1,4.8,2.1,7.9c0,3-0.7,5.7-2.1,7.8
		c-1.4,2.2-3.4,3.9-6,5c-2.6,1.2-5.7,1.8-9.4,1.8h-13.1l2.7-2.8V51H185.3z M191.3,36.1l-2.7-3h12.9c3.8,0,6.8-0.8,8.7-2.5
		c2-1.6,3-4,3-7s-1-5.3-3-7c-2-1.6-4.9-2.5-8.7-2.5h-12.9l2.7-3V36.1z"/>
	<path d="M228.8,20.2c-0.7,0-1.3-0.2-1.8-0.7c-0.5-0.5-0.7-1.1-0.7-1.7c0-0.7,0.2-1.2,0.7-1.7c0.5-0.5,1.1-0.7,1.8-0.7
		c0.7,0,1.3,0.2,1.8,0.7c0.5,0.4,0.7,1,0.7,1.7c0,0.7-0.2,1.3-0.7,1.8C230.2,20,229.6,20.2,228.8,20.2z M227.1,51V25.8h3.4V51H227.1
		z"/>
	<path class="st0" d="M236.2,51l10.7-13.8l0,1.7l-10.1-13.1h3.8l8.3,10.8l-1.4,0l8.3-10.8h3.7L249.2,39l0-1.8L260,51h-3.9l-8.8-11.5
		l1.3,0.2L240,51H236.2z"/>
</g>
<image style="overflow:visible;enable-background:new    ;" width="308" height="230" id="Calque_0_1_" xlink:href="6CEBDF7D.png"  transform="matrix(0.1997 0 0 0.1997 1 9.6519)">
</image>
<g>
</g>
<g>
</g>
<g>
</g>
<g>
</g>
<g>
</g>
<g>
</g>
<g>
</g>
<g>
</g>
<g>
</g>
<g>
</g>
<g>
</g>
<g>
</g>
<g>
</g>
<g>
</g>
<g>
</g>
</svg>
