<?xml version="1.0" encoding="utf-8"?>
<!-- Generator: Adobe Illustrator 25.3.0, SVG Export Plug-In . SVG Version: 6.00 Build 0)  -->
<svg version="1.1" id="Calque_1" xmlns="http://www.w3.org/2000/svg" xmlns:xlink="http://www.w3.org/1999/xlink" x="0px" y="0px"
	 viewBox="0 0 29.4 12.8" style="enable-background:new 0 0 29.4 12.8;" xml:space="preserve">
<style type="text/css">
	.Ombre_x0020_portée{fill:none;}
	.Lueur_x0020_externe_x0020_5 pt{fill:none;}
	.Néon_x0020_bleu{fill:none;stroke:#89ACDA;stroke-width:7;stroke-linecap:round;stroke-linejoin:round;}
	.Ton_x0020_clair_x0020_chrome{fill:url(#SVGID_1_);stroke:#FFFFFF;stroke-width:0.3629;stroke-miterlimit:1;}
	.Swing_GS{fill:#FFDD06;}
	.Alysse_GS{fill:#A7D0E4;}
	.st0{fill:#010202;}
	.st1{fill:#41BEE0;}
</style>
<linearGradient id="SVGID_1_" gradientUnits="userSpaceOnUse" x1="-86.7986" y1="-39.4936" x2="-86.7986" y2="-40.4936">
	<stop  offset="0" style="stop-color:#666665"/>
	<stop  offset="0.618" style="stop-color:#1B1B1B"/>
	<stop  offset="0.6292" style="stop-color:#555454"/>
	<stop  offset="0.9831" style="stop-color:#3E3E3E"/>
</linearGradient>
<g>
	<path class="st0" d="M16.8,0l-2.1,11.8c0,0.2-0.2,0.4-0.3,0.6s-0.4,0.3-0.6,0.3c-0.2,0-0.5,0-0.7-0.1s-0.4-0.2-0.5-0.4L8.4,5.4
		l-4.2,6.9c-0.1,0.2-0.2,0.3-0.4,0.4s-0.4,0.1-0.6,0.1c-0.3,0-0.5-0.1-0.7-0.3s-0.3-0.4-0.4-0.7L0,0h2.3l1.5,8.3l3.6-5.7
		c0.1-0.2,0.2-0.3,0.4-0.4S8.2,2,8.4,2s0.4,0,0.6,0.1s0.3,0.2,0.4,0.4L13,8.3L14.5,0H16.8z"/>
	<polygon class="st1" points="2.3,0 0,0 0.7,3.9 3.4,5.9 	"/>
</g>
<path class="st0" d="M29.4,5.3c0,0.5-0.1,1-0.2,1.4s-0.3,0.8-0.5,1.1c-0.2,0.3-0.5,0.6-0.8,0.8S27.4,9,27,9.1
	c-0.3,0.1-0.6,0.2-0.9,0.3c-0.3,0.1-0.6,0.1-0.9,0.1H20V7.2h5.2c0.3,0,0.6-0.1,0.8-0.2c0.2-0.1,0.4-0.2,0.6-0.4s0.3-0.4,0.4-0.6
	s0.1-0.5,0.1-0.8v-1c0-0.3-0.1-0.6-0.2-0.8S26.7,3,26.6,2.8c-0.2-0.2-0.4-0.3-0.6-0.4s-0.5-0.1-0.8-0.1H20c-0.3,0-0.5,0.1-0.7,0.2
	s-0.2,0.4-0.2,0.7v9.4h-2.3V3.2c0-0.6,0.1-1.1,0.3-1.5c0.2-0.4,0.5-0.7,0.8-1s0.7-0.4,1-0.5S19.7,0,20,0h5.2c0.5,0,1,0.1,1.4,0.2
	s0.8,0.3,1.1,0.5s0.6,0.5,0.8,0.8c0.2,0.3,0.4,0.6,0.5,0.9c0.1,0.3,0.2,0.6,0.3,0.9s0.1,0.6,0.1,0.9V5.3z"/>
<polygon class="st1" points="20,7.2 20,9.5 22.6,9.5 25.5,7.2 "/>
<polygon class="st1" points="19.1,12.6 16.8,5.8 16.8,12.6 "/>
<g>
</g>
<g>
</g>
<g>
</g>
<g>
</g>
<g>
</g>
<g>
</g>
<g>
</g>
<g>
</g>
<g>
</g>
<g>
</g>
<g>
</g>
<g>
</g>
<g>
</g>
<g>
</g>
<g>
</g>
</svg>
