<?xml version="1.0" encoding="utf-8"?>
<!-- Generator: Adobe Illustrator 25.3.0, SVG Export Plug-In . SVG Version: 6.00 Build 0)  -->
<svg version="1.1" id="Calque_1" xmlns="http://www.w3.org/2000/svg" xmlns:xlink="http://www.w3.org/1999/xlink" x="0px" y="0px"
	 viewBox="0 0 187.4 67.5" style="enable-background:new 0 0 187.4 67.5;" xml:space="preserve">
<style type="text/css">
	.Ombre_x0020_portée{fill:none;}
	.Lueur_x0020_externe_x0020_5 pt{fill:none;}
	.Néon_x0020_bleu{fill:none;stroke:#89ACDA;stroke-width:7;stroke-linecap:round;stroke-linejoin:round;}
	.Ton_x0020_clair_x0020_chrome{fill:url(#SVGID_1_);stroke:#FFFFFF;stroke-width:0.3629;stroke-miterlimit:1;}
	.Swing_GS{fill:#FFDD06;}
	.Alysse_GS{fill:#A7D0E4;}
	.st0{fill:none;stroke:#52A3DB;stroke-miterlimit:10;}
	.st1{fill:#52A3DB;}
</style>
<linearGradient id="SVGID_1_" gradientUnits="userSpaceOnUse" x1="-105.5435" y1="-14.8481" x2="-105.5435" y2="-15.8481">
	<stop  offset="0" style="stop-color:#666665"/>
	<stop  offset="0.618" style="stop-color:#1B1B1B"/>
	<stop  offset="0.6292" style="stop-color:#555454"/>
	<stop  offset="0.9831" style="stop-color:#3E3E3E"/>
</linearGradient>
<g>
	<path class="st0" d="M16.5,51.5l-14-42h6.2l12.9,38.8h-3.1L31.8,9.5h5.5l13.1,38.8h-3L60.4,9.5h5.7l-14,42h-6.3L33.6,15.6h1.6
		L22.9,51.5H16.5z"/>
	<path class="st1" d="M74.5,20.7c-0.7,0-1.3-0.2-1.8-0.7C72.3,19.5,72,19,72,18.3c0-0.7,0.2-1.2,0.7-1.7c0.5-0.5,1.1-0.7,1.8-0.7
		c0.7,0,1.3,0.2,1.8,0.7c0.5,0.4,0.7,1,0.7,1.7c0,0.7-0.2,1.3-0.7,1.8C75.9,20.5,75.3,20.7,74.5,20.7z M72.8,51.5V26.3h3.4v25.2
		H72.8z"/>
	<path d="M83,51.5v-2.3L99.8,28l0.7,1.2H83.3v-2.8h19.9v2.2L86.4,49.8l-0.9-1.2h18v2.8H83z"/>
	<path class="st0" d="M111.8,51.5v-42h16.4c3.7,0,6.8,0.6,9.4,1.7c2.6,1.2,4.6,2.8,6,5c1.4,2.2,2.1,4.8,2.1,7.9c0,3-0.7,5.7-2.1,7.8
		c-1.4,2.2-3.4,3.9-6,5c-2.6,1.2-5.7,1.8-9.4,1.8h-13.1l2.7-2.8v15.5H111.8z M117.8,36.6l-2.7-3H128c3.8,0,6.8-0.8,8.7-2.5
		c2-1.6,3-4,3-7s-1-5.3-3-7c-2-1.6-4.9-2.5-8.7-2.5h-12.9l2.7-3V36.6z"/>
	<path d="M155.3,20.7c-0.7,0-1.3-0.2-1.8-0.7c-0.5-0.5-0.7-1.1-0.7-1.7c0-0.7,0.2-1.2,0.7-1.7c0.5-0.5,1.1-0.7,1.8-0.7
		c0.7,0,1.3,0.2,1.8,0.7c0.5,0.4,0.7,1,0.7,1.7c0,0.7-0.2,1.3-0.7,1.8C156.6,20.5,156,20.7,155.3,20.7z M153.6,51.5V26.3h3.4v25.2
		H153.6z"/>
	<path class="st1" d="M162.6,51.5l10.7-13.8l0,1.7l-10.1-13.1h3.8l8.3,10.8l-1.4,0l8.3-10.8h3.7l-10.2,13.2l0-1.8l10.8,13.8h-3.9
		L173.8,40l1.3,0.2l-8.6,11.3H162.6z"/>
</g>
<g>
</g>
<g>
</g>
<g>
</g>
<g>
</g>
<g>
</g>
<g>
</g>
<g>
</g>
<g>
</g>
<g>
</g>
<g>
</g>
<g>
</g>
<g>
</g>
<g>
</g>
<g>
</g>
<g>
</g>
</svg>
