<?xml version="1.0" encoding="utf-8"?>
<!-- Generator: Adobe Illustrator 25.3.0, SVG Export Plug-In . SVG Version: 6.00 Build 0)  -->
<svg version="1.1" id="Calque_1" xmlns="http://www.w3.org/2000/svg" xmlns:xlink="http://www.w3.org/1999/xlink" x="0px" y="0px"
	 viewBox="0 0 70 13.7" style="enable-background:new 0 0 70 13.7;" xml:space="preserve">
<style type="text/css">
	.Ombre_x0020_portée{fill:none;}
	.Lueur_x0020_externe_x0020_5 pt{fill:none;}
	.Néon_x0020_bleu{fill:none;stroke:#89ACDA;stroke-width:7;stroke-linecap:round;stroke-linejoin:round;}
	.Ton_x0020_clair_x0020_chrome{fill:url(#SVGID_1_);stroke:#FFFFFF;stroke-width:0.3629;stroke-miterlimit:1;}
	.Swing_GS{fill:#FFDD06;}
	.Alysse_GS{fill:#A7D0E4;}
	.st0{fill:#FFFFFF;}
	.st1{fill:#41BEE0;}
	.st2{fill:#F39207;}
	.st3{fill:#E83081;}
	.st4{fill:#57B368;}
	.st5{fill:#F1861A;}
</style>
<linearGradient id="SVGID_1_" gradientUnits="userSpaceOnUse" x1="-81.2378" y1="-38.0366" x2="-81.2378" y2="-39.0366">
	<stop  offset="0" style="stop-color:#666665"/>
	<stop  offset="0.618" style="stop-color:#1B1B1B"/>
	<stop  offset="0.6292" style="stop-color:#555454"/>
	<stop  offset="0.9831" style="stop-color:#3E3E3E"/>
</linearGradient>
<path class="st0" d="M16.8,0.9l-2.1,11.8c0,0.2-0.2,0.4-0.3,0.6s-0.4,0.3-0.6,0.3c-0.2,0-0.5,0-0.7-0.1s-0.4-0.2-0.5-0.4L8.4,6.3
	l-4.2,6.9c-0.1,0.2-0.2,0.3-0.4,0.4s-0.4,0.1-0.6,0.1c-0.3,0-0.5-0.1-0.7-0.3S2.2,13,2.1,12.7L0,0.9h2.3l1.5,8.3l3.6-5.7
	c0.1-0.2,0.2-0.3,0.4-0.4S8.2,3,8.4,3S8.8,3,9,3.1s0.3,0.2,0.4,0.4L13,9.2l1.5-8.3H16.8z"/>
<path class="st1" d="M20.8,2h-2.3V0h2.3v0.1V2z M20.8,13.5h-2.3V4h2.3V13.5z"/>
<path class="st0" d="M31.9,4.7C32,4.9,32.1,5.2,32,5.4S31.9,5.8,31.7,6l-5.3,5.3h5.5v2.3h-8.2c-0.2,0-0.4-0.1-0.6-0.2
	s-0.3-0.3-0.4-0.5c-0.1-0.2-0.1-0.4-0.1-0.7s0.2-0.4,0.3-0.6l5.3-5.3h-5.5V4h8.3c0.2,0,0.4,0.1,0.6,0.2S31.9,4.5,31.9,4.7z"/>
<path class="st0" d="M52.4,6.2c0,0.5-0.1,1-0.2,1.4s-0.3,0.8-0.5,1.1c-0.2,0.3-0.5,0.6-0.8,0.8S50.4,9.9,50,10
	c-0.3,0.1-0.6,0.2-0.9,0.3c-0.3,0.1-0.6,0.1-0.9,0.1H43V8.1h5.2c0.3,0,0.6-0.1,0.8-0.2c0.2-0.1,0.4-0.2,0.6-0.4S49.9,7.2,50,7
	s0.1-0.5,0.1-0.8v-1c0-0.3-0.1-0.6-0.2-0.8s-0.2-0.4-0.4-0.6c-0.2-0.2-0.4-0.3-0.6-0.4s-0.5-0.1-0.8-0.1H43c-0.3,0-0.5,0.1-0.7,0.2
	s-0.2,0.4-0.2,0.7v9.4h-2.3V4.1c0-0.6,0.1-1.1,0.3-1.5c0.2-0.4,0.5-0.7,0.8-1s0.7-0.4,1-0.5s0.7-0.2,1-0.2h5.2c0.5,0,1,0.1,1.4,0.2
	s0.8,0.3,1.1,0.5s0.6,0.5,0.8,0.8C51.7,2.7,51.9,3,52,3.3c0.1,0.3,0.2,0.6,0.3,0.9s0.1,0.6,0.1,0.9V6.2z"/>
<path class="st2" d="M56.4,2.1h-2.3V0h2.3V2.1z M56.4,13.5h-2.3V4h2.3V13.5z"/>
<path class="st0" d="M69.5,4l-4.1,4.5l4.6,5h-3.1l-3-3.3l-3,3.3h-3.2l4.6-5L58.1,4h3.1l2.5,2.8L66.3,4H69.5z"/>
<rect x="18.5" class="st3" width="2.3" height="2"/>
<rect x="54.2" class="st3" width="2.3" height="2.1"/>
<polygon class="st4" points="2.3,0.9 0,0.9 0.7,4.8 3.4,6.8 "/>
<polygon class="st5" points="31.9,11.2 27.6,11.2 25.8,13.5 31.9,13.5 "/>
<polygon class="st1" points="43,8.1 43,10.4 45.6,10.4 48.5,8.1 "/>
<polygon class="st4" points="42.1,13.5 39.8,6.7 39.8,13.5 "/>
<polygon class="st4" points="70,13.5 66.9,13.5 65.5,12.1 68.7,12.1 "/>
<g>
</g>
<g>
</g>
<g>
</g>
<g>
</g>
<g>
</g>
<g>
</g>
<g>
</g>
<g>
</g>
<g>
</g>
<g>
</g>
<g>
</g>
<g>
</g>
<g>
</g>
<g>
</g>
<g>
</g>
</svg>
