<?xml version="1.0" encoding="utf-8"?>
<!-- Generator: Adobe Illustrator 25.3.0, SVG Export Plug-In . SVG Version: 6.00 Build 0)  -->
<svg version="1.1" id="Calque_1" xmlns="http://www.w3.org/2000/svg" xmlns:xlink="http://www.w3.org/1999/xlink" x="0px" y="0px"
	 viewBox="0 0 163.7 70.6" style="enable-background:new 0 0 163.7 70.6;" xml:space="preserve">
<style type="text/css">
	.Ombre_x0020_portée{fill:none;}
	.Lueur_x0020_externe_x0020_5 pt{fill:none;}
	.Néon_x0020_bleu{fill:none;stroke:#89ACDA;stroke-width:7;stroke-linecap:round;stroke-linejoin:round;}
	.Ton_x0020_clair_x0020_chrome{fill:url(#SVGID_1_);stroke:#FFFFFF;stroke-width:0.3629;stroke-miterlimit:1;}
	.Swing_GS{fill:#FFDD06;}
	.Alysse_GS{fill:#A7D0E4;}
	.st0{fill:#52A3DB;}
	.st1{fill:none;stroke:#010202;stroke-miterlimit:10;}
	.st2{fill:none;stroke:#010202;}
	.st3{fill:none;}
</style>
<linearGradient id="SVGID_1_" gradientUnits="userSpaceOnUse" x1="-105.5435" y1="-14.8481" x2="-105.5435" y2="-15.8481">
	<stop  offset="0" style="stop-color:#666665"/>
	<stop  offset="0.618" style="stop-color:#1B1B1B"/>
	<stop  offset="0.6292" style="stop-color:#555454"/>
	<stop  offset="0.9831" style="stop-color:#3E3E3E"/>
</linearGradient>
<g>
	<path class="st0" d="M37.3,52c-1.7,0-3.2-0.5-4.4-1.5s-2.1-2.7-2.7-5.1l-2.4-9.8c-0.5,1.8-1,3.5-1.7,5.2c-0.6,1.7-1.3,3.2-1.9,4.5
		c-1,2.4-2.1,4.1-3.3,5.1c-1.2,1-2.5,1.6-4,1.6c-1.7,0-3.2-0.6-4.4-1.7c-1.2-1.2-2.1-2.8-2.6-4.9L2,15.3c-0.6-2-0.5-3.6,0.3-4.7
		c0.9-1.1,2-1.7,3.4-1.7c1.3,0,2.3,0.4,3.1,1.3c0.7,0.9,1.4,2.4,1.9,4.5l7,28.4L21.9,30c0.8-2.5,1.3-4.4,1.5-5.9
		c0.2-1.5,0.3-2.6,0.3-3.4c0-1.3-0.1-2.4-0.4-3.2c-0.3-0.9-0.5-1.7-0.7-2.5c-0.5-2.1-0.3-3.5,0.4-4.3c0.8-0.8,1.8-1.2,3-1.2
		c1.3,0,2.3,0.4,3.1,1.2c0.8,0.8,1.4,2.1,1.8,4L37.6,43c1.9-5.6,3.3-10.1,4.1-13.6c0.8-3.4,1.2-6.1,1.2-7.9c0-1.8-0.1-3.3-0.2-4.3
		c-0.2-1-0.3-1.8-0.5-2.5c-0.2-0.7-0.3-1.3-0.3-2c0-1,0.4-1.9,1.1-2.8c0.7-0.8,2-1.3,3.7-1.3c1.3,0,2.3,0.5,3.1,1.4
		c0.7,1,1.2,2.1,1.5,3.5c0.3,1.4,0.4,2.8,0.4,4.1c0,1.9-0.2,4-0.7,6.5c-0.4,2.4-1,5-1.7,7.5c-0.7,2.6-1.5,5.1-2.3,7.4
		c-0.8,2.4-1.7,4.4-2.5,6.1c-1.1,2.4-2.2,4-3.4,5C40,51.5,38.7,52,37.3,52z"/>
	<path class="st1" d="M58.9,20.7c-0.7,0-1.3-0.2-1.8-0.7c-0.5-0.5-0.7-1.1-0.7-1.7c0-0.7,0.2-1.2,0.7-1.7c0.5-0.5,1.1-0.7,1.8-0.7
		c0.7,0,1.3,0.2,1.8,0.7c0.5,0.4,0.7,1,0.7,1.7c0,0.7-0.2,1.3-0.7,1.8C60.3,20.5,59.7,20.7,58.9,20.7z M57.2,51.5V26.3h3.4v25.2
		H57.2z"/>
	<path class="st2" d="M67.4,51.5v-2.3L84.2,28l0.7,1.2H67.7v-2.8h19.9v2.2L70.8,49.8L70,48.7h18v2.8H67.4z"/>
	<path class="st0" d="M102.6,48c0,2.7-1.4,4-4.2,4c-1.4,0-2.4-0.3-3.2-1c-0.8-0.7-1.2-1.7-1.2-3V22.3c0-4.5,1.2-7.8,3.5-10.1
		c2.4-2.3,6.3-3.4,11.9-3.4c4.1,0,7.3,1.1,9.7,3.3c2.3,2.2,3.5,5.7,3.5,10.6c0,4.2-1.1,7.5-3.3,9.7c-2.2,2.2-5.3,3.4-9.4,3.4
		c-2.3,0-3.9,0.2-5,0.5c-1,0.3-1.7,1-1.9,1.9c-0.3,0.9-0.4,2.2-0.4,3.9V48z M102,30.6c0.5-0.4,0.9-0.8,1.4-1.1
		c0.4-0.3,1-0.5,1.8-0.7c0.7-0.2,1.7-0.3,3-0.3c1.7,0,3.1-0.1,4.1-0.5c1-0.3,1.7-0.9,2.1-1.7s0.6-2.1,0.6-3.7c0-2.1-0.2-3.7-0.8-4.6
		c-0.5-1-1.2-1.6-2.1-1.9c-0.9-0.3-2-0.4-3.3-0.4c-2.3,0-4,0.4-4.9,1.3c-0.9,0.8-1.4,2.3-1.4,4.4c0,1.5,0,3.1-0.1,4.9
		C102.4,28,102.2,29.5,102,30.6z"/>
	<path class="st2" d="M131.2,20.7c-0.7,0-1.3-0.2-1.8-0.7c-0.5-0.5-0.7-1.1-0.7-1.7c0-0.7,0.2-1.2,0.7-1.7c0.5-0.5,1.1-0.7,1.8-0.7
		c0.7,0,1.3,0.2,1.8,0.7c0.5,0.4,0.7,1,0.7,1.7c0,0.7-0.2,1.3-0.7,1.8C132.5,20.5,131.9,20.7,131.2,20.7z M129.5,51.5V26.3h3.4v25.2
		H129.5z"/>
	<path class="st1" d="M138.5,51.5l10.7-13.8l0,1.7L139,26.3h3.8l8.3,10.8l-1.4,0l8.3-10.8h3.7l-10.2,13.2l0-1.8l10.8,13.8h-3.9
		L149.7,40l1.3,0.2l-8.6,11.3H138.5z"/>
</g>
<g>
	<rect y="29.8" class="st3" width="27.4" height="5.1"/>
</g>
<g>
</g>
<g>
</g>
<g>
</g>
<g>
</g>
<g>
</g>
<g>
</g>
<g>
</g>
<g>
</g>
<g>
</g>
<g>
</g>
<g>
</g>
<g>
</g>
<g>
</g>
<g>
</g>
<g>
</g>
</svg>
