<?xml version="1.0" encoding="utf-8"?>
<!-- Generator: Adobe Illustrator 25.3.0, SVG Export Plug-In . SVG Version: 6.00 Build 0)  -->
<svg version="1.1" id="Calque_1" xmlns="http://www.w3.org/2000/svg" xmlns:xlink="http://www.w3.org/1999/xlink" x="0px" y="0px"
	 viewBox="0 0 56.9 11.1" style="enable-background:new 0 0 56.9 11.1;" xml:space="preserve">
<style type="text/css">
	.st0{fill:#3D3082;}
	.st1{fill:#FFF000;}
	.st2{fill:#3F3633;}
	.st3{fill:#009C57;}
	.st4{fill:#1B8F2D;}
	.st5{fill:#E8410A;}
	.st6{fill:#523D2A;}
	.st7{fill:#3CA4DD;}
	.st8{fill:#FFEF00;}
	.st9{fill:#F49200;}
	.st10{fill:#E82F81;}
	.st11{fill:#F9C7C1;}
	.st12{fill:#A2C72D;}
	.st13{fill:#A5D8D6;}
	.st14{fill:#5CB239;}
	.st15{fill:#AB801F;}
	.st16{fill:#9E1779;}
	.st17{fill:#EF4223;}
	.st18{fill:#34A3DC;}
	.st19{fill:#99CA46;}
	.st20{fill:#9E4334;}
	.st21{fill:#26974F;}
	.st22{fill:#FABFB7;}
	.st23{fill:#C51A1E;}
	.st24{fill:#5C81A7;}
	.st25{fill:#FFF32A;}
	.st26{fill:#EE3D8A;}
	.st27{fill:#9C2584;}
	.st28{fill:#9B2584;}
	.st29{fill:#5A3438;}
	.st30{fill:#00A361;}
	.st31{fill:#3B398C;}
	.st32{fill:#1ABECB;}
	.st33{fill:#1D1D1B;}
</style>
<g>
	<g>
		<path class="st0" d="M34.4-24.1l-2.8-7.7l-2.3,0.8l3.8,10.6L34.4-24.1z M33.2-20.3C33.2-20.3,33.2-20.3,33.2-20.3
			C33.2-20.3,33.2-20.3,33.2-20.3 M33.2-20.3c0.1,0.2,0.1,0.3,0.2,0.4C33.3-20.1,33.2-20.2,33.2-20.3 M33.4-19.9
			C33.4-19.9,33.4-19.9,33.4-19.9C33.4-19.9,33.4-19.9,33.4-19.9 M35.1-19.9C35.1-19.9,35.1-19.9,35.1-19.9
			C35.1-19.9,35.1-19.9,35.1-19.9 M35.1-19.9c-0.1,0.1-0.2,0.2-0.4,0.2C34.9-19.7,35-19.8,35.1-19.9 M34.7-19.6
			C34.7-19.6,34.7-19.6,34.7-19.6C34.7-19.6,34.7-19.6,34.7-19.6 M34.6-19.6C34.6-19.6,34.6-19.6,34.6-19.6
			C34.6-19.6,34.6-19.6,34.6-19.6 M34.6-19.6C34.6-19.6,34.6-19.6,34.6-19.6C34.6-19.6,34.6-19.6,34.6-19.6 M34.6-19.6
			c-0.1,0-0.2,0-0.3,0c0,0,0,0,0,0c0,0,0,0,0,0C34.4-19.6,34.5-19.6,34.6-19.6 M34.3-19.6C34.3-19.6,34.3-19.6,34.3-19.6
			C34.3-19.6,34.3-19.6,34.3-19.6"/>
		<polygon class="st1" points="35.4,-20.3 38.8,-28.1 37.8,-31.8 34.4,-24.1 		"/>
		<path class="st2" d="M34.4-24.1l-1.2,2.8c-0.1,0.3-0.1,0.6,0,0.9l0,0c0,0,0,0,0,0c0,0,0,0,0,0c0,0,0,0,0,0
			c0.1,0.1,0.1,0.3,0.2,0.4c0,0,0,0,0,0c0,0,0,0,0,0c0.2,0.2,0.5,0.4,0.9,0.4c0,0,0,0,0,0c0,0,0,0,0,0c0,0,0,0,0,0
			c0.1,0,0.2,0,0.3,0c0,0,0,0,0,0c0,0,0,0,0,0c0,0,0,0,0,0c0,0,0,0,0,0c0,0,0,0,0.1,0c0,0,0,0,0,0c0,0,0,0,0,0c0,0,0,0,0,0
			c0.1-0.1,0.3-0.1,0.4-0.2c0,0,0,0,0,0c0,0,0,0,0,0c0.4-0.3,0.5-0.8,0.3-1.3L34.4-24.1"/>
		<path class="st3" d="M40-31.8l-1.3,3.7l2.8,7.7c-0.1-0.3-0.1-0.6,0-0.8l1.2-3.1L40-31.8"/>
		<path class="st4" d="M38.9-32.6c-0.1,0-0.3,0-0.4,0.1c0,0,0,0,0,0c0,0,0,0,0,0c0,0,0,0,0,0c-0.2,0.1-0.3,0.1-0.4,0.3
			c-0.1,0.1-0.2,0.2-0.3,0.4c0,0,0,0,0,0l0,0c-0.1,0.3-0.1,0.6,0,0.9l1,2.9l1.2-2.8c0.1-0.3,0.1-0.6,0-0.9l0,0c0,0,0,0,0,0
			c0,0,0,0,0,0c0,0,0,0,0,0c-0.1-0.1-0.1-0.3-0.2-0.4C39.6-32.4,39.3-32.6,38.9-32.6C38.9-32.6,38.9-32.6,38.9-32.6
			C38.9-32.6,38.9-32.6,38.9-32.6C38.9-32.6,38.9-32.6,38.9-32.6"/>
		<path class="st3" d="M43.9-20.3L43.9-20.3C43.8-20.3,43.8-20.3,43.9-20.3C43.8-20.3,43.9-20.3,43.9-20.3 M41.6-20.3
			c0.1,0.2,0.2,0.3,0.3,0.4C41.7-20,41.6-20.2,41.6-20.3 M41.9-19.9C41.9-19.9,41.9-19.9,41.9-19.9C41.9-19.9,41.9-19.9,41.9-19.9
			 M43.6-19.9C43.6-19.9,43.6-19.9,43.6-19.9C43.6-19.9,43.6-19.9,43.6-19.9 M43.6-19.9c-0.1,0.1-0.3,0.2-0.4,0.3
			C43.3-19.7,43.5-19.8,43.6-19.9 M42.2-19.6L42.2-19.6 M42.2-19.6c0.1,0,0.2,0.1,0.2,0.1C42.4-19.6,42.4-19.6,42.2-19.6
			C42.3-19.6,42.3-19.6,42.2-19.6 M43.1-19.6C43.1-19.6,43.1-19.6,43.1-19.6C43.1-19.6,43.1-19.6,43.1-19.6 M43-19.6
			C43-19.6,43-19.6,43-19.6L43-19.6 M43-19.6C43-19.6,43-19.6,43-19.6C43-19.6,43-19.6,43-19.6 M43-19.6c-0.1,0-0.2,0-0.3,0
			c0,0,0,0-0.1,0c0,0,0,0,0.1,0C42.8-19.6,42.9-19.6,43-19.6 M42.5-19.6C42.5-19.6,42.5-19.6,42.5-19.6
			C42.5-19.6,42.5-19.6,42.5-19.6 M42.5-19.6C42.5-19.6,42.5-19.6,42.5-19.6C42.5-19.6,42.5-19.6,42.5-19.6 M42.5-19.6
			C42.5-19.6,42.5-19.6,42.5-19.6C42.5-19.6,42.5-19.6,42.5-19.6 M42.6-19.6C42.6-19.6,42.6-19.6,42.6-19.6
			C42.6-19.6,42.6-19.6,42.6-19.6 M42.6-19.6C42.6-19.6,42.6-19.6,42.6-19.6C42.6-19.6,42.6-19.6,42.6-19.6 M42.7-19.6
			C42.7-19.6,42.7-19.6,42.7-19.6C42.7-19.6,42.7-19.6,42.7-19.6"/>
		<path class="st5" d="M43.9-20.3l4-10.6l-2.3-0.9l-2.8,7.5L43.9-20.3z M41.6-20.4C41.6-20.4,41.6-20.3,41.6-20.4
			C41.6-20.3,41.6-20.3,41.6-20.4L41.6-20.4 M43.8-20.3c-0.1,0.1-0.1,0.3-0.3,0.4C43.7-20,43.8-20.1,43.8-20.3 M41.9-19.9
			C41.9-19.9,41.9-19.9,41.9-19.9C41.9-19.9,41.9-19.9,41.9-19.9 M41.9-19.9c0.1,0.1,0.2,0.2,0.4,0.3C42.1-19.7,42-19.8,41.9-19.9
			 M43.6-19.9C43.6-19.9,43.6-19.9,43.6-19.9C43.6-19.9,43.6-19.9,43.6-19.9 M42.2-19.6C42.2-19.6,42.2-19.6,42.2-19.6
			C42.2-19.6,42.2-19.6,42.2-19.6 M43.1-19.6C43.1-19.6,43.1-19.6,43.1-19.6C43.1-19.6,43.1-19.6,43.1-19.6 M43.1-19.6
			C43.1-19.6,43.1-19.6,43.1-19.6c-0.1,0-0.1,0-0.1,0C43.1-19.6,43.1-19.6,43.1-19.6 M43-19.6C43-19.6,43-19.6,43-19.6
			C43-19.6,43-19.6,43-19.6 M43-19.6C43-19.6,43-19.6,43-19.6C43-19.6,43-19.6,43-19.6 M42.5-19.6C42.5-19.6,42.5-19.6,42.5-19.6
			C42.5-19.6,42.5-19.6,42.5-19.6 M42.5-19.6C42.5-19.6,42.5-19.6,42.5-19.6C42.5-19.6,42.5-19.6,42.5-19.6 M42.5-19.6
			C42.5-19.6,42.5-19.6,42.5-19.6C42.5-19.6,42.5-19.6,42.5-19.6 M42.5-19.6c0,0,0.1,0,0.1,0C42.6-19.6,42.6-19.6,42.5-19.6
			 M42.6-19.6C42.6-19.6,42.6-19.6,42.6-19.6C42.6-19.6,42.6-19.6,42.6-19.6 M42.6-19.6C42.6-19.6,42.7-19.6,42.6-19.6
			C42.7-19.6,42.6-19.6,42.6-19.6 M42.7-19.6C42.7-19.6,42.7-19.6,42.7-19.6C42.7-19.6,42.7-19.6,42.7-19.6"/>
		<path class="st6" d="M42.7-24.3l-1.2,3.1c-0.1,0.3-0.1,0.6,0,0.8l0,0c0,0,0,0,0,0c0.1,0.2,0.2,0.3,0.3,0.4c0,0,0,0,0,0
			c0,0,0,0,0,0c0.1,0.1,0.2,0.2,0.4,0.3l0,0c0,0,0,0,0,0c0,0,0,0,0,0c0.1,0,0.1,0,0.2,0.1c0,0,0,0,0,0c0,0,0,0,0,0c0,0,0,0,0,0
			c0,0,0,0,0,0c0,0,0,0,0,0c0,0,0,0,0,0c0,0,0.1,0,0.1,0c0,0,0,0,0,0c0,0,0,0,0,0c0,0,0,0,0,0c0,0,0,0,0,0c0,0,0,0,0,0c0,0,0,0,0,0
			c0,0,0,0,0.1,0c0.1,0,0.2,0,0.3,0c0,0,0,0,0,0c0,0,0,0,0,0c0,0,0,0,0,0c0,0,0,0,0,0c0,0,0.1,0,0.1,0c0,0,0,0,0,0c0,0,0,0,0,0
			c0,0,0,0,0,0c0.2-0.1,0.3-0.2,0.4-0.3c0,0,0,0,0,0c0,0,0,0,0,0c0.1-0.1,0.2-0.2,0.3-0.4c0,0,0,0,0,0l0,0c0.1-0.3,0.1-0.6,0-0.8
			L42.7-24.3"/>
		<circle class="st7" cx="30.5" cy="-31.4" r="1.2"/>
		<circle class="st8" cx="46.7" cy="-31.4" r="1.2"/>
		<path class="st9" d="M37.7-31.4c0-0.7,0.5-1.2,1.2-1.2c0.7,0,1.2,0.5,1.2,1.2c0,0.7-0.5,1.2-1.2,1.2
			C38.2-30.1,37.7-30.7,37.7-31.4L37.7-31.4z"/>
	</g>
	<g>
		<rect x="49.6" y="-28.1" class="st10" width="2.4" height="7.4"/>
		<path class="st9" d="M49.6-31.8c0-0.7,0.5-1.2,1.2-1.2c0.7,0,1.2,0.5,1.2,1.2c0,0.7-0.5,1.2-1.2,1.2S49.6-31.1,49.6-31.8
			L49.6-31.8z"/>
		<circle class="st3" cx="50.8" cy="-20.8" r="1.2"/>
		<path class="st11" d="M49.6-28.1c0-0.7,0.5-1.2,1.2-1.2c0.7,0,1.2,0.5,1.2,1.2c0,0.7-0.5,1.2-1.2,1.2S49.6-27.4,49.6-28.1
			L49.6-28.1z"/>
	</g>
	<g>
		<polygon class="st12" points="61.4,-22 57.9,-22 55.3,-19.6 61.4,-19.6 		"/>
		<path class="st9" d="M55.3-26.8h3.5l2.6-2.4h-6.1V-26.8z M61.4-29.3C61.4-29.3,61.4-29.3,61.4-29.3"/>
		<polygon class="st13" points="57.9,-22 62.4,-27.3 58.8,-26.8 54.4,-21.6 		"/>
		<path class="st14" d="M57.9-22h-2.6c-1.2,0-1.7,1.6-0.6,2.2c0.5,0.3,1.2,0.2,1.6-0.2L57.9-22z"/>
		<path class="st15" d="M61.4-29.3c-0.3,0-0.7,0.1-0.9,0.4l-1.7,2h2.6c0.4,0,0.7-0.2,0.9-0.5C63-28.1,62.5-29.3,61.4-29.3"/>
		<path class="st10" d="M60.2-20.8c0-0.7,0.5-1.2,1.2-1.2c0.7,0,1.2,0.5,1.2,1.2s-0.5,1.2-1.2,1.2C60.8-19.6,60.2-20.1,60.2-20.8
			L60.2-20.8z"/>
		<path class="st16" d="M54.1-28.1c0-0.7,0.5-1.2,1.2-1.2c0.7,0,1.2,0.5,1.2,1.2c0,0.7-0.5,1.2-1.2,1.2
			C54.6-26.8,54.1-27.4,54.1-28.1L54.1-28.1z"/>
	</g>
	<g>
		<rect x="64.5" y="-31.4" class="st17" width="2.4" height="10.6"/>
		<path class="st18" d="M70.1-32.6C70.1-32.6,70.1-32.6,70.1-32.6c0.7,0,1.2,0.5,1.2,1.2c0,0.7-0.5,1.2-1.2,1.2l0,0
			c0.3,0,0.6,0.1,0.8,0.2c0.4,0.2,0.7,0.4,1,0.8c0.1,0.2,0.2,0.4,0.3,0.6c0.1,0.2,0.1,0.4,0.1,0.6c0,0.3-0.1,0.6-0.2,0.8
			c-0.2,0.4-0.4,0.7-0.8,1c-0.2,0.1-0.4,0.2-0.6,0.3c-0.2,0.1-0.4,0.1-0.6,0.1c0.7,0,1.2,0.5,1.2,1.2c0,0.7-0.5,1.2-1.2,1.2l0,0
			c0,0,0,0,0,0c0.6,0,1.2-0.1,1.8-0.4c0.8-0.4,1.5-0.9,2-1.7c0.2-0.4,0.4-0.8,0.6-1.2c0.1-0.4,0.2-0.9,0.2-1.4
			c0-0.6-0.1-1.2-0.4-1.8c-0.4-0.8-0.9-1.5-1.7-2c-0.4-0.2-0.8-0.4-1.2-0.6C71-32.5,70.6-32.6,70.1-32.6"/>
		<line class="st19" x1="70.1" y1="-25.8" x2="70.1" y2="-25.8"/>
		<rect x="66.9" y="-25.8" class="st19" width="3.1" height="2.4"/>
		<path class="st20" d="M66.9-25.8h-1.2c-0.7,0-1.2,0.5-1.2,1.2c0,0.7,0.5,1.2,1.2,1.2h1.2V-25.8"/>
		<path class="st21" d="M70.1-25.8L70.1-25.8c-0.7,0-1.2,0.5-1.2,1.2c0,0.7,0.5,1.2,1.2,1.2l0,0c0.7,0,1.2-0.5,1.2-1.2
			C71.3-25.2,70.8-25.8,70.1-25.8"/>
		<path class="st22" d="M65.7-32.6"/>
		<line class="st22" x1="70.1" y1="-32.6" x2="70.1" y2="-32.6"/>
		<polygon class="st22" points="70.1,-32.6 65.7,-32.6 66.9,-30.1 70.1,-30.1 		"/>
		<path class="st23" d="M64.5-31.4c0,0.7,0.5,1.2,1.2,1.2h1.2v-1.2H64.5z"/>
		<path class="st24" d="M70.1-32.6L70.1-32.6c-0.7,0-1.2,0.5-1.2,1.2c0,0.7,0.5,1.2,1.2,1.2l0,0c0.7,0,1.2-0.5,1.2-1.2
			C71.3-32,70.8-32.6,70.1-32.6"/>
		<path class="st25" d="M64.5-31.4c0-0.7,0.5-1.2,1.2-1.2c0.7,0,1.2,0.5,1.2,1.2c0,0.7-0.5,1.2-1.2,1.2
			C65.1-30.1,64.5-30.7,64.5-31.4L64.5-31.4z"/>
		<path class="st26" d="M68.9-31.4c0-0.7,0.5-1.2,1.2-1.2s1.2,0.5,1.2,1.2c0,0.7-0.5,1.2-1.2,1.2S68.9-30.7,68.9-31.4L68.9-31.4z"/>
		<circle class="st27" cx="65.7" cy="-20.8" r="1.2"/>
	</g>
	<g>
		<rect x="76.9" y="-28.1" class="st10" width="2.4" height="7.4"/>
		<path class="st9" d="M76.9-31.8c0-0.7,0.5-1.2,1.2-1.2c0.7,0,1.2,0.5,1.2,1.2c0,0.7-0.5,1.2-1.2,1.2S76.9-31.1,76.9-31.8
			L76.9-31.8z"/>
		<circle class="st3" cx="78.1" cy="-20.8" r="1.2"/>
		<path class="st11" d="M76.9-28.1c0-0.7,0.5-1.2,1.2-1.2c0.7,0,1.2,0.5,1.2,1.2c0,0.7-0.5,1.2-1.2,1.2S76.9-27.4,76.9-28.1
			L76.9-28.1z"/>
	</g>
	<g>
		<path class="st19" d="M81.7-27.3l2.4,2.9l1.6-1.9l-2.1-2.5L81.7-27.3z M87.3-24.4l-1.6,1.9l2.1,2.5c0.2,0.3,0.6,0.4,0.9,0.4
			c0.3,0,0.5-0.1,0.8-0.3c0.5-0.4,0.6-1.2,0.2-1.7L87.3-24.4"/>
		<path class="st28" d="M87.8-28.8l-2.1,2.5l1.6,1.9l2.4-2.9L87.8-28.8z M84.1-24.4l-2.4,2.9c-0.4,0.5-0.4,1.3,0.2,1.7
			c0.2,0.2,0.5,0.3,0.8,0.3c0.3,0,0.7-0.1,0.9-0.4l2.1-2.5L84.1-24.4"/>
		<polyline class="st29" points="85.7,-26.3 84.1,-24.4 85.7,-22.5 87.3,-24.4 85.7,-26.3 		"/>
		<path class="st30" d="M81.4-28.1c0-0.7,0.5-1.2,1.2-1.2c0.7,0,1.2,0.5,1.2,1.2c0,0.7-0.5,1.2-1.2,1.2C82-26.8,81.4-27.4,81.4-28.1
			L81.4-28.1z"/>
		<circle class="st31" cx="88.7" cy="-20.8" r="1.2"/>
		<path class="st26" d="M87.5-28.1c0-0.7,0.5-1.2,1.2-1.2s1.2,0.5,1.2,1.2c0,0.7-0.5,1.2-1.2,1.2S87.5-27.4,87.5-28.1L87.5-28.1z"/>
		<path class="st32" d="M81.4-20.8c0-0.7,0.5-1.2,1.2-1.2c0.7,0,1.2,0.5,1.2,1.2c0,0.7-0.5,1.2-1.2,1.2C82-19.6,81.4-20.1,81.4-20.8
			L81.4-20.8z"/>
	</g>
</g>
<path class="st10" d="M2.4,0v7.1c0,0,0,0.1,0,0.2s0,0.2,0.1,0.2C2.6,7.8,2.7,8.1,3,8.3c0.2,0.2,0.5,0.3,0.9,0.3h3.3
	c0.1,0,0.3,0,0.4-0.1C7.7,8.5,7.9,8.5,8,8.4c0.1-0.1,0.2-0.2,0.3-0.3C8.5,8,8.5,7.8,8.6,7.7c0-0.1,0-0.1,0.1-0.2c0-0.1,0-0.2,0-0.2
	V0h2.4v7.5c0,0,0,0.1,0,0.2c0,0.1,0,0.2,0,0.2c-0.1,0.8-0.5,1.4-1,2c-0.5,0.5-1.2,0.9-1.9,1.1C8,11,7.9,11,7.7,11
	c-0.2,0-0.3,0.1-0.4,0.1H3.6c-0.1,0-0.2,0-0.4-0.1c-0.2,0-0.3-0.1-0.4-0.1c-0.7-0.2-1.3-0.6-1.7-1.1c-0.4-0.5-0.8-1.1-1-1.8
	C0.1,8,0.1,7.8,0,7.7c0-0.1,0-0.3,0-0.4V0H2.4z M6.7,0v8.2H4.4V0H6.7z"/>
<path class="st14" d="M2.4,0v7.1c0,0,0,0.1,0,0.2s0,0.2,0.1,0.2C2.6,7.8,2.7,8.1,3,8.3c0.2,0.2,0.5,0.3,0.9,0.3h3.3
	c0.1,0,0.3,0,0.4-0.1C7.7,8.5,7.9,8.5,8,8.4c0.1-0.1,0.2-0.2,0.3-0.3C8.5,8,8.5,7.8,8.6,7.7c0-0.1,0-0.1,0.1-0.2c0-0.1,0-0.2,0-0.2
	V0h2.4v7.5c0,0,0,0.1,0,0.2c0,0.1,0,0.2,0,0.2c-0.1,0.8-0.5,1.4-1,2c-0.5,0.5-1.2,0.9-1.9,1.1C8,11,7.9,11,7.7,11
	c-0.2,0-0.3,0.1-0.4,0.1H3.6c-0.1,0-0.2,0-0.4-0.1c-0.2,0-0.3-0.1-0.4-0.1c-0.7-0.2-1.3-0.6-1.7-1.1c-0.4-0.5-0.8-1.1-1-1.8
	C0.1,8,0.1,7.8,0,7.7c0-0.1,0-0.3,0-0.4V0H2.4z"/>
<path class="st1" d="M11.7,0.4C11.9,0.1,12.2,0,12.5,0s0.6,0.1,0.8,0.4c0.2,0.2,0.3,0.5,0.3,0.8c0,0.3-0.1,0.6-0.3,0.9
	c-0.2,0.2-0.5,0.3-0.9,0.3c-0.3,0-0.6-0.1-0.8-0.3c-0.2-0.2-0.3-0.5-0.3-0.9C11.4,0.9,11.5,0.6,11.7,0.4z M13.7,2.9v8.2h-2.4V2.9
	H13.7z"/>
<path class="st5" d="M11.7,0.4C11.9,0.1,12.2,0,12.5,0s0.6,0.1,0.8,0.4c0.2,0.2,0.3,0.5,0.3,0.8c0,0.3-0.1,0.6-0.3,0.9
	c-0.2,0.2-0.5,0.3-0.9,0.3c-0.3,0-0.6-0.1-0.8-0.3c-0.2-0.2-0.3-0.5-0.3-0.9C11.4,0.9,11.5,0.6,11.7,0.4z M11.4,3.4V2.9 M11.4,10.4
	v-7 M13.7,7.4v3.7h-2.4v-0.7 M11.4,2.9h2.4v4.5"/>
<path class="st0" d="M38.1,0c0.2,0,0.4,0,0.7,0.1c0.2,0.1,0.5,0.1,0.7,0.2c0.8,0.3,1.5,0.8,1.9,1.5c0.4,0.7,0.6,1.4,0.6,2.3
	c0,0.9-0.2,1.7-0.7,2.4c-0.5,0.7-1.2,1.1-2.1,1.4c-0.2,0-0.3,0.1-0.5,0.1c-0.2,0-0.3,0.1-0.5,0.1h-4.4V5.8H38c0,0,0.1,0,0.2,0
	c0.1,0,0.2,0,0.3-0.1c0.4-0.1,0.7-0.3,0.8-0.6c0.2-0.3,0.3-0.6,0.3-1c0-0.4-0.1-0.8-0.3-1c-0.2-0.3-0.5-0.5-0.9-0.6c0,0,0,0-0.1,0
	c-0.1,0-0.1,0-0.1,0c0,0-0.1,0-0.1,0c0,0-0.1,0-0.1,0h-4.7v8.7h-2.4V0H38.1z"/>
<path class="st9" d="M32.9,0h5.1c0.2,0,0.4,0,0.7,0.1c0.2,0.1,0.5,0.1,0.7,0.2c0.8,0.3,1.5,0.8,1.9,1.5c0.4,0.7,0.6,1.4,0.6,2.3
	c0,0.9-0.2,1.7-0.7,2.4c-0.5,0.7-1.2,1.1-2.1,1.4c-0.2,0-0.3,0.1-0.5,0.1c-0.2,0-0.3,0.1-0.5,0.1h-4.4V5.8H38c0,0,0.1,0,0.2,0
	c0.1,0,0.2,0,0.3-0.1c0.4-0.1,0.7-0.3,0.8-0.6c0.2-0.3,0.3-0.6,0.3-1c0-0.4-0.1-0.8-0.3-1c-0.2-0.3-0.5-0.5-0.9-0.6c0,0,0,0-0.1,0
	c-0.1,0-0.1,0-0.1,0c0,0-0.1,0-0.1,0c0,0-0.1,0-0.1,0h-1.3 M30.8,1.5V0h2.1 M30.8,10.2V1.5 M33.2,3.9v7.2h-2.4v-0.9"/>
<path class="st17" d="M42.5,0.4C42.8,0.1,43,0,43.4,0s0.6,0.1,0.8,0.4c0.2,0.2,0.3,0.5,0.3,0.8c0,0.3-0.1,0.6-0.3,0.9
	c-0.2,0.2-0.5,0.3-0.9,0.3c-0.3,0-0.6-0.1-0.8-0.3c-0.2-0.2-0.3-0.5-0.3-0.9C42.2,0.9,42.3,0.6,42.5,0.4z M44.6,2.9v8.2h-2.4V2.9
	H44.6z"/>
<path class="st18" d="M44,2.2c-0.2,0.1-0.4,0.1-0.6,0.1c-0.3,0-0.6-0.1-0.8-0.3c-0.2-0.2-0.3-0.5-0.3-0.9c0-0.3,0.1-0.6,0.3-0.8
	c0.1-0.1,0.2-0.1,0.2-0.2 M43.9,0.1c0.1,0.1,0.2,0.1,0.3,0.2c0.2,0.2,0.3,0.5,0.3,0.8c0,0.3-0.1,0.6-0.3,0.9
	c-0.1,0.1-0.2,0.1-0.3,0.2 M42.8,0.2C43,0.1,43.2,0,43.4,0c0.2,0,0.4,0,0.6,0.1 M42.2,5V2.9h0.2 M44.6,5.4v5.6h-2.4V5 M42.4,2.9h2.2
	v2.6"/>
<path class="st10" d="M48,6.2l1.7,1.7l-3.1,3.1h-0.1l-1.7-1.7L48,6.2z M46.2,2L46.2,2c0.1,0,0.1,0,0.1,0L56.9,9l-1.3,2c0,0,0,0,0,0
	h0h0c0,0,0,0-0.1,0L44.9,3.9L46.2,2z M55.2,1.9l1.7,1.7l-3.1,3.1h-0.1L52.1,5L55.2,1.9z"/>
<path class="st0" d="M47.6,10.1l-1,1h-0.1l-1-1 M46,8.2l2-2l1.7,1.7l-2.1,2.1 M45.5,10.1l-0.7-0.7L46,8.2 M52.3,8.9l-6.1-4.1
	 M51.2,5.2L56.9,9l-1.3,2c0,0,0,0,0,0h0h0c0,0,0,0-0.1,0l-3.2-2.1 M46.2,4.8l-1.3-0.9L46.2,2l0.1-0.1c0,0,0,0,0.1,0l4.9,3.3
	 M53.5,3.7l1.8-1.8l0.5,0.5 M55.3,5.2l-1.5,1.5h-0.1L52.1,5l1.4-1.4 M55.7,2.4l1.2,1.2l-1.6,1.6"/>
<polygon class="st0" points="30.6,2.9 16.7,2.9 16.7,5.3 22.6,5.3 27,5.3 "/>
<rect x="27.8" y="8.7" class="st1" width="0" height="2.4"/>
<polygon class="st1" points="14,11.1 27.8,11.1 27.8,8.7 17.6,8.7 "/>
<polygon class="st33" points="22.6,5.3 17.6,8.7 27.8,8.7 27.8,8.7 22,8.7 27,5.3 "/>
</svg>
