<?xml version="1.0" encoding="utf-8"?>
<!-- Generator: Adobe Illustrator 25.3.0, SVG Export Plug-In . SVG Version: 6.00 Build 0)  -->
<svg version="1.1" id="Calque_1" xmlns="http://www.w3.org/2000/svg" xmlns:xlink="http://www.w3.org/1999/xlink" x="0px" y="0px"
	 viewBox="0 0 101.3 34.7" style="enable-background:new 0 0 101.3 34.7;" xml:space="preserve">
<style type="text/css">
	.st0{fill:#1D1D1B;}
</style>
<g>
	<path class="st0" d="M26.1,9.2l-4,17.6h-4.9l-3.4-12.9h-0.4l-3.4,12.9H5.2l-4-17.6h3.2l2.9,15.2h0.7l4.1-15.2h2.9l4.1,15.2H20
		l2.9-15.2H26.1z"/>
	<path class="st0" d="M32.4,12.1h-2.5V9.2h2.5V12.1z M32.4,26.8h-2.5V16l2.5-2.5V26.8z"/>
	<path class="st0" d="M47.2,26.8H36.4v-2.5l7.9-7.6v-0.4h-7.9v-2.2h10.8v2.5l-7.9,7.6v0.4h7.9V26.8z"/>
	<path class="st0" d="M58,19.3l-2.5,2.5h-6.1l2.5-2.5H58z"/>
	<path class="st0" d="M77,19.3c0,0.7-0.3,1.3-0.8,1.8c-0.5,0.5-1.1,0.8-1.8,0.8h-9.7v5h-2.9V14.2l2.5-2.5h-2.5V9.2h12.6
		c0.7,0,1.3,0.3,1.8,0.8c0.5,0.5,0.8,1.1,0.8,1.8V19.3z M74.2,19.3v-7.6h-9.4v9.7l2.2-2.2H74.2z"/>
	<path class="st0" d="M84.8,12.1h-2.5V9.2h2.5V12.1z M84.8,26.8h-2.5V16l2.5-2.5V26.8z"/>
	<path class="st0" d="M101,26.8h-3.1l-3.4-5h-0.4l-3.4,5h-3l5-6.6l-4.6-6h3l3.1,4.5h0.4l3-4.5h3.1l-4.7,6L101,26.8z"/>
</g>
</svg>
