<?xml version="1.0" encoding="utf-8"?>
<!-- Generator: Adobe Illustrator 25.3.0, SVG Export Plug-In . SVG Version: 6.00 Build 0)  -->
<svg version="1.1" id="Calque_1" xmlns="http://www.w3.org/2000/svg" xmlns:xlink="http://www.w3.org/1999/xlink" x="0px" y="0px"
	 viewBox="0 0 140.2 34.7" style="enable-background:new 0 0 140.2 34.7;" xml:space="preserve">
<style type="text/css">
	.st0{fill:#3D3082;}
	.st1{fill:#FFF000;}
	.st2{fill:#3F3633;}
	.st3{fill:#009C57;}
	.st4{fill:#1B8F2D;}
	.st5{fill:#E8410A;}
	.st6{fill:#523D2A;}
	.st7{fill:#3CA4DD;}
	.st8{fill:#FFEF00;}
	.st9{fill:#F49200;}
	.st10{fill:#E82F81;}
	.st11{fill:#F9C7C1;}
	.st12{fill:#A2C72D;}
	.st13{fill:#A5D8D6;}
	.st14{fill:#5CB239;}
	.st15{fill:#AB801F;}
	.st16{fill:#9E1779;}
	.st17{fill:#EF4223;}
	.st18{fill:#34A3DC;}
	.st19{fill:#99CA46;}
	.st20{fill:#9E4334;}
	.st21{fill:#26974F;}
	.st22{fill:#FABFB7;}
	.st23{fill:#C51A1E;}
	.st24{fill:#5C81A7;}
	.st25{fill:#FFF32A;}
	.st26{fill:#EE3D8A;}
	.st27{fill:#9C2584;}
	.st28{fill:#9B2584;}
	.st29{fill:#5A3438;}
	.st30{fill:#00A361;}
	.st31{fill:#3B398C;}
	.st32{fill:#1ABECB;}
</style>
<g>
	<g>
		<g>
			<path class="st0" d="M12.1,21.9L6.6,6.5L2,8.2l7.6,21.2L12.1,21.9z M9.6,29.4C9.6,29.4,9.6,29.4,9.6,29.4
				C9.6,29.4,9.6,29.4,9.6,29.4 M9.6,29.4c0.1,0.3,0.3,0.6,0.5,0.8C9.9,29.9,9.8,29.7,9.6,29.4 M10.1,30.2
				C10.1,30.2,10.1,30.2,10.1,30.2C10.1,30.2,10.1,30.2,10.1,30.2 M13.6,30.3C13.6,30.3,13.6,30.3,13.6,30.3
				C13.6,30.3,13.6,30.3,13.6,30.3 M13.6,30.3c-0.2,0.2-0.5,0.4-0.8,0.5C13.1,30.7,13.3,30.5,13.6,30.3 M12.8,30.8
				C12.8,30.8,12.8,30.8,12.8,30.8C12.8,30.8,12.8,30.8,12.8,30.8 M12.6,30.8C12.6,30.8,12.6,30.8,12.6,30.8
				C12.6,30.8,12.6,30.8,12.6,30.8 M12.6,30.8C12.6,30.8,12.6,30.8,12.6,30.8C12.6,30.8,12.6,30.8,12.6,30.8 M12.6,30.8
				c-0.2,0.1-0.5,0.1-0.7,0.1c0,0,0,0,0,0c0,0,0,0,0.1,0C12.2,30.9,12.4,30.9,12.6,30.8 M11.9,30.9C11.9,30.9,11.9,30.9,11.9,30.9
				C11.9,30.9,11.9,30.9,11.9,30.9"/>
			<polygon class="st1" points="14.2,29.5 20.9,13.9 18.9,6.4 12.1,21.9 			"/>
			<path class="st2" d="M12.1,21.9l-2.4,5.6c-0.3,0.6-0.3,1.2-0.1,1.8l0,0c0,0,0,0,0,0c0,0,0,0,0,0c0,0,0,0,0,0
				c0.1,0.3,0.3,0.6,0.5,0.8c0,0,0,0,0,0c0,0,0,0,0,0c0.4,0.5,1.1,0.8,1.7,0.8c0,0,0,0,0,0c0,0,0,0,0,0c0,0,0,0,0,0
				c0.2,0,0.5,0,0.7-0.1c0,0,0,0,0,0c0,0,0,0,0,0c0,0,0,0,0,0c0,0,0,0,0,0c0,0,0.1,0,0.1,0c0,0,0,0,0.1,0c0,0,0,0,0,0c0,0,0,0,0,0
				c0.3-0.1,0.5-0.3,0.8-0.5c0,0,0,0,0,0c0,0,0,0,0,0c0.7-0.6,1-1.7,0.6-2.6L12.1,21.9"/>
			<path class="st3" d="M23.4,6.5l-2.5,7.4l5.5,15.4c-0.2-0.5-0.2-1.1,0-1.7l2.3-6.2L23.4,6.5"/>
			<path class="st4" d="M21.1,4.9c-0.3,0-0.5,0-0.8,0.1c0,0,0,0,0,0c0,0,0,0,0,0c0,0,0,0,0,0c-0.3,0.1-0.6,0.3-0.9,0.5
				c-0.2,0.2-0.4,0.5-0.5,0.7c0,0,0,0,0,0.1l0,0c-0.2,0.5-0.3,1.2-0.1,1.8l2.1,5.8l2.4-5.6c0.3-0.6,0.3-1.2,0.1-1.8l0,0
				c0,0,0,0,0-0.1c0,0,0,0,0,0c0,0,0,0,0,0c-0.1-0.3-0.3-0.5-0.5-0.7C22.5,5.2,21.9,4.9,21.1,4.9C21.2,4.9,21.2,4.9,21.1,4.9
				C21.2,4.9,21.2,4.9,21.1,4.9C21.2,4.9,21.2,4.9,21.1,4.9"/>
			<path class="st3" d="M31,29.4L31,29.4c0,0.1,0,0.1,0,0.1C31,29.4,31,29.4,31,29.4 M26.5,29.4c0.1,0.3,0.3,0.6,0.5,0.8
				C26.8,30,26.6,29.7,26.5,29.4 M27,30.2C27,30.2,27,30.2,27,30.2C27,30.2,27,30.2,27,30.2 M30.5,30.2
				C30.5,30.2,30.5,30.2,30.5,30.2C30.5,30.2,30.5,30.2,30.5,30.2 M30.5,30.2c-0.2,0.2-0.5,0.4-0.9,0.6C30,30.7,30.2,30.5,30.5,30.2
				 M27.8,30.8L27.8,30.8 M27.8,30.8c0.2,0.1,0.3,0.1,0.5,0.1C28.2,30.9,28,30.8,27.8,30.8C27.9,30.8,27.9,30.8,27.8,30.8
				 M29.6,30.8C29.6,30.8,29.6,30.8,29.6,30.8C29.6,30.8,29.6,30.8,29.6,30.8 M29.4,30.9C29.4,30.9,29.4,30.9,29.4,30.9L29.4,30.9
				 M29.3,30.9C29.3,30.9,29.3,30.9,29.3,30.9C29.3,30.9,29.3,30.9,29.3,30.9 M29.3,30.9c-0.2,0-0.4,0.1-0.6,0.1c0,0-0.1,0-0.1,0
				c0,0,0.1,0,0.1,0C29,30.9,29.1,30.9,29.3,30.9 M28.3,30.9C28.3,30.9,28.3,30.9,28.3,30.9C28.3,30.9,28.3,30.9,28.3,30.9
				 M28.3,30.9C28.3,30.9,28.3,30.9,28.3,30.9C28.3,30.9,28.3,30.9,28.3,30.9 M28.3,30.9C28.3,30.9,28.3,30.9,28.3,30.9
				C28.3,30.9,28.3,30.9,28.3,30.9 M28.6,30.9C28.6,30.9,28.6,30.9,28.6,30.9C28.6,30.9,28.6,30.9,28.6,30.9 M28.6,30.9
				C28.6,30.9,28.6,30.9,28.6,30.9C28.6,30.9,28.6,30.9,28.6,30.9 M28.6,30.9C28.6,30.9,28.6,30.9,28.6,30.9
				C28.6,30.9,28.6,30.9,28.6,30.9"/>
			<path class="st5" d="M31,29.4l8-21.1l-4.6-1.7l-5.7,15L31,29.4z M26.5,29.3C26.5,29.3,26.5,29.4,26.5,29.3
				C26.5,29.4,26.5,29.3,26.5,29.3L26.5,29.3 M31,29.5c-0.1,0.3-0.3,0.5-0.5,0.8C30.7,30,30.9,29.8,31,29.5 M27,30.2
				C27,30.2,27,30.2,27,30.2C27,30.2,27,30.2,27,30.2 M27,30.2c0.2,0.2,0.5,0.4,0.8,0.5C27.5,30.6,27.3,30.5,27,30.2 M30.5,30.2
				C30.5,30.2,30.5,30.2,30.5,30.2C30.5,30.2,30.5,30.2,30.5,30.2 M27.8,30.8C27.8,30.8,27.8,30.8,27.8,30.8
				C27.8,30.8,27.8,30.8,27.8,30.8 M29.6,30.8C29.6,30.8,29.6,30.8,29.6,30.8C29.6,30.8,29.6,30.8,29.6,30.8 M29.6,30.8
				C29.6,30.8,29.6,30.8,29.6,30.8c-0.1,0-0.2,0.1-0.3,0.1C29.4,30.8,29.5,30.8,29.6,30.8 M29.4,30.9C29.4,30.9,29.3,30.9,29.4,30.9
				C29.3,30.9,29.4,30.9,29.4,30.9 M29.3,30.9C29.3,30.9,29.3,30.9,29.3,30.9C29.3,30.9,29.3,30.9,29.3,30.9 M28.3,30.9
				C28.3,30.9,28.3,30.9,28.3,30.9C28.3,30.9,28.3,30.9,28.3,30.9 M28.3,30.9C28.3,30.9,28.3,30.9,28.3,30.9
				C28.3,30.9,28.3,30.9,28.3,30.9 M28.3,30.9C28.3,30.9,28.3,30.9,28.3,30.9C28.3,30.9,28.3,30.9,28.3,30.9 M28.3,30.9
				c0.1,0,0.2,0,0.3,0C28.5,30.9,28.4,30.9,28.3,30.9 M28.6,30.9C28.6,30.9,28.6,30.9,28.6,30.9C28.6,30.9,28.6,30.9,28.6,30.9
				 M28.6,30.9C28.6,30.9,28.6,30.9,28.6,30.9C28.6,30.9,28.6,30.9,28.6,30.9 M28.6,30.9C28.6,30.9,28.6,30.9,28.6,30.9
				C28.6,30.9,28.6,30.9,28.6,30.9"/>
			<path class="st6" d="M28.8,21.5l-2.3,6.2c-0.2,0.6-0.2,1.2,0,1.7l0,0c0,0,0,0,0,0c0.1,0.3,0.3,0.6,0.5,0.8c0,0,0,0,0,0
				c0,0,0,0,0,0c0.2,0.2,0.5,0.4,0.8,0.5l0,0c0,0,0,0,0,0c0,0,0.1,0,0.1,0c0.1,0.1,0.3,0.1,0.4,0.1c0,0,0,0,0,0c0,0,0,0,0,0
				c0,0,0,0,0,0c0,0,0,0,0,0c0,0,0,0,0,0c0,0,0,0,0,0c0.1,0,0.2,0,0.3,0c0,0,0,0,0,0c0,0,0,0,0,0c0,0,0,0,0,0c0,0,0,0,0,0
				c0,0,0,0,0,0c0,0,0,0,0,0c0,0,0.1,0,0.1,0c0.2,0,0.4,0,0.6-0.1c0,0,0,0,0,0c0,0,0,0,0,0c0,0,0,0,0,0c0,0,0,0,0,0
				c0.1,0,0.2,0,0.2-0.1c0,0,0,0,0,0c0,0,0,0,0,0c0,0,0,0,0,0c0.3-0.1,0.6-0.3,0.9-0.6c0,0,0,0,0,0c0,0,0,0,0,0
				c0.2-0.2,0.4-0.5,0.5-0.8c0,0,0-0.1,0-0.1l0,0c0.2-0.5,0.2-1.1,0-1.7L28.8,21.5"/>
			<path class="st7" d="M1.9,7.3C1.9,6,3,4.9,4.3,4.9c1.3,0,2.4,1.1,2.4,2.4c0,1.3-1.1,2.4-2.4,2.4C3,9.8,1.9,8.7,1.9,7.3L1.9,7.3z"
				/>
			<path class="st8" d="M34.3,7.3c0-1.3,1.1-2.4,2.4-2.4s2.4,1.1,2.4,2.4c0,1.3-1.1,2.4-2.4,2.4C35.4,9.8,34.3,8.7,34.3,7.3
				L34.3,7.3z"/>
			<path class="st9" d="M18.7,7.3c0-1.3,1.1-2.4,2.4-2.4s2.4,1.1,2.4,2.4c0,1.3-1.1,2.4-2.4,2.4S18.7,8.7,18.7,7.3L18.7,7.3z"/>
		</g>
		<g>
			<rect x="42.5" y="13.8" class="st10" width="4.9" height="14.7"/>
			<circle class="st9" cx="44.9" cy="6.4" r="2.4"/>
			<path class="st3" d="M42.5,28.5c0-1.3,1.1-2.4,2.4-2.4c1.3,0,2.4,1.1,2.4,2.4c0,1.3-1.1,2.4-2.4,2.4
				C43.5,30.9,42.5,29.9,42.5,28.5L42.5,28.5z"/>
			<path class="st11" d="M42.5,13.8c0-1.3,1.1-2.4,2.4-2.4c1.3,0,2.4,1.1,2.4,2.4c0,1.3-1.1,2.4-2.4,2.4
				C43.5,16.2,42.5,15.2,42.5,13.8L42.5,13.8z"/>
		</g>
		<g>
			<polygon class="st12" points="66.2,26.1 59.2,26.1 54,30.9 66.2,30.9 			"/>
			<path class="st9" d="M53.9,16.3h7l5.2-4.9H53.9L53.9,16.3z M66.2,11.5C66.2,11.5,66.2,11.5,66.2,11.5"/>
			<polygon class="st13" points="59.2,26.1 68.1,15.5 61,16.3 52.1,26.9 			"/>
			<path class="st14" d="M59.2,26.1h-5.2c-2.4,0-3.4,3.2-1.3,4.5c1,0.6,2.4,0.4,3.2-0.5L59.2,26.1z"/>
			<path class="st15" d="M66.2,11.5c-0.7,0-1.4,0.3-1.9,0.9l-3.4,4h5.2c0.7,0,1.4-0.3,1.9-0.9C69.4,13.9,68.2,11.5,66.2,11.5"/>
			<circle class="st10" cx="66.2" cy="28.5" r="2.4"/>
			<path class="st16" d="M51.5,13.9c0-1.3,1.1-2.4,2.4-2.4c1.3,0,2.4,1.1,2.4,2.4c0,1.3-1.1,2.4-2.4,2.4
				C52.6,16.3,51.5,15.3,51.5,13.9L51.5,13.9z"/>
		</g>
		<g>
			<rect x="87.4" y="7.3" class="st17" width="4.9" height="21.2"/>
			<path class="st18" d="M98.6,4.9C98.6,4.9,98.6,4.9,98.6,4.9c1.3,0,2.4,1.1,2.4,2.4c0,1.3-1.1,2.4-2.4,2.4l0,0
				c0.6,0,1.2,0.1,1.7,0.3c0.8,0.3,1.5,0.9,1.9,1.6c0.2,0.3,0.4,0.7,0.5,1.1c0.1,0.4,0.2,0.8,0.2,1.3c0,0.6-0.1,1.2-0.3,1.7
				c-0.3,0.8-0.9,1.5-1.6,1.9c-0.3,0.2-0.7,0.4-1.1,0.5c-0.4,0.1-0.8,0.2-1.3,0.2c1.3,0,2.4,1.1,2.4,2.4c0,1.3-1.1,2.4-2.4,2.4l0,0
				c0,0,0,0,0,0c1.3,0,2.5-0.3,3.6-0.7c1.7-0.7,3.1-1.9,4.1-3.3c0.5-0.7,0.9-1.5,1.2-2.4c0.3-0.9,0.4-1.8,0.4-2.7
				c0-1.3-0.3-2.5-0.7-3.6c-0.7-1.7-1.9-3.1-3.3-4.1c-0.7-0.5-1.5-0.9-2.4-1.2C100.5,5.1,99.6,4.9,98.6,4.9"/>
			<line class="st19" x1="98.6" y1="18.5" x2="98.6" y2="18.5"/>
			<rect x="92.3" y="18.5" class="st19" width="6.3" height="4.9"/>
			<path class="st20" d="M92.3,18.5h-2.4c-1.3,0-2.4,1.1-2.4,2.4s1.1,2.4,2.4,2.4h2.4V18.5"/>
			<path class="st21" d="M98.6,18.5L98.6,18.5c-1.3,0-2.4,1.1-2.4,2.4s1.1,2.4,2.4,2.4l0,0c1.3,0,2.4-1.1,2.4-2.4
				C101,19.6,100,18.5,98.6,18.5"/>
			<path class="st22" d="M89.9,4.9"/>
			<line class="st22" x1="98.6" y1="4.9" x2="98.6" y2="4.9"/>
			<polygon class="st22" points="98.6,4.9 89.9,4.9 92.3,9.8 98.6,9.8 			"/>
			<path class="st23" d="M87.4,7.3c0,1.3,1.1,2.4,2.4,2.4h2.4V7.3H87.4z"/>
			<path class="st24" d="M98.6,4.9L98.6,4.9c-1.3,0-2.4,1.1-2.4,2.4c0,1.3,1.1,2.4,2.4,2.4l0,0c1.3,0,2.4-1.1,2.4-2.4
				C101,6,100,4.9,98.6,4.9"/>
			<circle class="st25" cx="89.9" cy="7.3" r="2.4"/>
			<circle class="st26" cx="98.6" cy="7.3" r="2.4"/>
			<path class="st27" d="M87.4,28.5c0-1.3,1.1-2.4,2.4-2.4c1.3,0,2.4,1.1,2.4,2.4c0,1.3-1.1,2.4-2.4,2.4
				C88.5,30.9,87.4,29.9,87.4,28.5L87.4,28.5z"/>
		</g>
		<g>
			<rect x="112.2" y="13.8" class="st10" width="4.9" height="14.7"/>
			<circle class="st9" cx="114.7" cy="6.4" r="2.4"/>
			<path class="st3" d="M112.2,28.5c0-1.3,1.1-2.4,2.4-2.4c1.3,0,2.4,1.1,2.4,2.4c0,1.3-1.1,2.4-2.4,2.4S112.2,29.9,112.2,28.5
				L112.2,28.5z"/>
			<path class="st11" d="M112.2,13.8c0-1.3,1.1-2.4,2.4-2.4c1.3,0,2.4,1.1,2.4,2.4c0,1.3-1.1,2.4-2.4,2.4S112.2,15.2,112.2,13.8
				L112.2,13.8z"/>
		</g>
		<g>
			<path class="st19" d="M121.9,15.5l4.8,5.7l3.2-3.8l-4.2-5L121.9,15.5z M133,21.2l-3.2,3.8l4.2,5c0.5,0.6,1.2,0.9,1.9,0.9
				c0.5,0,1.1-0.2,1.6-0.6c1-0.9,1.2-2.4,0.3-3.4L133,21.2"/>
			<path class="st28" d="M134,12.4l-4.2,5l3.2,3.8l4.8-5.7L134,12.4z M126.6,21.2l-4.8,5.7c-0.9,1-0.7,2.6,0.3,3.4
				c0.5,0.4,1,0.6,1.6,0.6c0.7,0,1.4-0.3,1.9-0.9l4.2-5L126.6,21.2"/>
			<polyline class="st29" points="129.8,17.4 126.6,21.2 129.8,25 133,21.2 129.8,17.4 			"/>
			<path class="st30" d="M121.3,13.9c0-1.3,1.1-2.4,2.4-2.4c1.3,0,2.4,1.1,2.4,2.4c0,1.3-1.1,2.4-2.4,2.4
				C122.4,16.3,121.3,15.3,121.3,13.9L121.3,13.9z"/>
			<path class="st31" d="M133.4,28.5c0-1.3,1.1-2.4,2.4-2.4s2.4,1.1,2.4,2.4c0,1.3-1.1,2.4-2.4,2.4S133.4,29.9,133.4,28.5
				L133.4,28.5z"/>
			<path class="st26" d="M133.4,13.9c0-1.3,1.1-2.4,2.4-2.4s2.4,1.1,2.4,2.4c0,1.3-1.1,2.4-2.4,2.4S133.4,15.3,133.4,13.9
				L133.4,13.9z"/>
			<path class="st32" d="M121.3,28.5c0-1.3,1.1-2.4,2.4-2.4c1.3,0,2.4,1.1,2.4,2.4c0,1.3-1.1,2.4-2.4,2.4
				C122.4,30.9,121.3,29.9,121.3,28.5L121.3,28.5z"/>
		</g>
	</g>
</g>
</svg>
