<?xml version="1.0" encoding="utf-8"?>
<!-- Generator: Adobe Illustrator 25.3.0, SVG Export Plug-In . SVG Version: 6.00 Build 0)  -->
<svg version="1.1" id="Calque_1" xmlns="http://www.w3.org/2000/svg" xmlns:xlink="http://www.w3.org/1999/xlink" x="0px" y="0px"
	 viewBox="0 0 70 13.7" style="enable-background:new 0 0 70 13.7;" xml:space="preserve">
<style type="text/css">
	.st0{fill:#FFFFFF;}
	.st1{fill:#41BEE0;}
	.st2{fill:#F39207;}
	.st3{fill:#E83081;}
	.st4{fill:#57B368;}
	.st5{fill:#F1861A;}
</style>
<g>
	<path class="st0" d="M16.8,0.9l-2.1,11.8c0,0.2-0.2,0.4-0.3,0.6s-0.4,0.3-0.6,0.3c-0.2,0-0.5,0-0.7-0.1s-0.4-0.2-0.5-0.4L8.4,6.3
		l-4.2,6.9c-0.1,0.2-0.2,0.3-0.4,0.4s-0.4,0.1-0.6,0.1c-0.3,0-0.5-0.1-0.7-0.3S2.2,13,2.1,12.7L0,0.9h2.3l1.5,8.3l3.6-5.7
		c0.1-0.2,0.2-0.3,0.4-0.4S8.2,3,8.4,3S8.8,3,9,3.1s0.3,0.2,0.4,0.4L13,9.2l1.5-8.3C14.5,0.9,16.8,0.9,16.8,0.9z"/>
	<path class="st1" d="M20.8,2h-2.3V0h2.3v0.1V2z M20.8,13.5h-2.3V4h2.3V13.5z"/>
	<path class="st0" d="M31.9,4.7C32,4.9,32.1,5.2,32,5.4S31.9,5.8,31.7,6l-5.3,5.3h5.5v2.3h-8.2c-0.2,0-0.4-0.1-0.6-0.2
		s-0.3-0.3-0.4-0.5s-0.1-0.4-0.1-0.7s0.2-0.4,0.3-0.6l5.3-5.3h-5.5V4H31c0.2,0,0.4,0.1,0.6,0.2S31.9,4.5,31.9,4.7z"/>
	<path class="st0" d="M52.4,6.2c0,0.5-0.1,1-0.2,1.4s-0.3,0.8-0.5,1.1s-0.5,0.6-0.8,0.8S50.4,9.9,50,10c-0.3,0.1-0.6,0.2-0.9,0.3
		c-0.3,0.1-0.6,0.1-0.9,0.1H43V8.1h5.2c0.3,0,0.6-0.1,0.8-0.2c0.2-0.1,0.4-0.2,0.6-0.4S49.9,7.2,50,7s0.1-0.5,0.1-0.8v-1
		c0-0.3-0.1-0.6-0.2-0.8S49.7,4,49.5,3.8c-0.2-0.2-0.4-0.3-0.6-0.4s-0.5-0.1-0.8-0.1H43c-0.3,0-0.5,0.1-0.7,0.2s-0.2,0.4-0.2,0.7
		v9.4h-2.3V4.1c0-0.6,0.1-1.1,0.3-1.5s0.5-0.7,0.8-1s0.7-0.4,1-0.5s0.7-0.2,1-0.2h5.2c0.5,0,1,0.1,1.4,0.2s0.8,0.3,1.1,0.5
		s0.6,0.5,0.8,0.8C51.7,2.7,51.9,3,52,3.3s0.2,0.6,0.3,0.9s0.1,0.6,0.1,0.9C52.4,5.1,52.4,6.2,52.4,6.2z"/>
	<path class="st2" d="M56.4,2.1h-2.3V0h2.3V2.1z M56.4,13.5h-2.3V4h2.3V13.5z"/>
	<path class="st0" d="M69.5,4l-4.1,4.5l4.6,5h-3.1l-3-3.3l-3,3.3h-3.2l4.6-5L58.1,4h3.1l2.5,2.8L66.3,4H69.5z"/>
	<rect x="18.5" class="st3" width="2.3" height="2"/>
	<rect x="54.1" class="st3" width="2.3" height="2.1"/>
	<polygon class="st4" points="2.3,0.9 0,0.9 0.7,4.8 3.4,6.8 	"/>
	<polygon class="st5" points="31.9,11.3 27.6,11.3 25.8,13.6 31.9,13.6 	"/>
	<polygon class="st1" points="43,8.1 43,10.4 45.6,10.4 48.5,8.1 	"/>
	<polygon class="st4" points="42.1,13.6 39.8,6.8 39.8,13.6 	"/>
</g>
<polygon class="st4" points="66.9,13.5 64.9,11.3 68,11.3 70,13.5 "/>
</svg>
